# MagicaVoxel @ Ephtracy

# group
o 

# material
mtllib Emeny.mtl
usemtl palette

# normals
vn -1 0 0
vn 1 0 0
vn 0 0 1
vn 0 0 -1
vn 0 -1 0
vn 0 1 0

# texcoords
vt 0.0292969 0.5
vt 0.685547 0.5
vt 0.958984 0.5
vt 0.994141 0.5

# verts
v -0.4 0.5 0.2
v -0.4 0.5 0
v -0.4 0.8 0.2
v -0.4 0.8 0
v -0.4 1 0.2
v -0.4 1 0
v -0.3 0 0.2
v -0.3 0 0
v -0.3 0.3 0.2
v -0.3 0.3 0
v -0.3 0.5 0.2
v -0.3 0.5 0
v -0.2 1 0.2
v -0.2 1 0
v -0.2 1.1 0.1
v -0.2 1.1 0
v -0.2 1.2 0.1
v -0.2 1.2 0
v -0.2 1.3 0.2
v -0.2 1.3 0
v 0.1 0 0.2
v 0.1 0 0
v 0.1 0.3 0.2
v 0.1 0.3 0
v 0.1 0.4 0.2
v 0.1 0.4 0
v -0.2 0 0.2
v -0.2 0 0
v -0.2 0.3 0.2
v -0.2 0.3 0
v -0.2 0.4 0.2
v -0.2 0.4 0
v 0.1 1 0.2
v 0.1 1 0
v 0.1 1.1 0.1
v 0.1 1.1 0
v 0.1 1.2 0.1
v 0.1 1.2 0
v 0.1 1.3 0.2
v 0.1 1.3 0
v 0.2 0 0.2
v 0.2 0 0
v 0.2 0.3 0.2
v 0.2 0.3 0
v 0.2 0.5 0.2
v 0.2 0.5 0
v 0.3 0.5 0.2
v 0.3 0.5 0
v 0.3 0.8 0.2
v 0.3 0.8 0
v 0.3 1 0.2
v 0.3 1 0
v -0.4 0.5 0.2
v -0.4 0.8 0.2
v -0.4 1 0.2
v -0.3 0 0.2
v -0.3 0.3 0.2
v -0.3 0.5 0.2
v -0.3 0.6 0.2
v -0.3 0.8 0.2
v -0.2 0 0.2
v -0.2 0.3 0.2
v -0.2 0.4 0.2
v -0.2 1 0.2
v -0.2 1.3 0.2
v -0.1 0.9 0.2
v -0.1 1 0.2
v 0 0.9 0.2
v 0 1 0.2
v 0.1 0 0.2
v 0.1 0.3 0.2
v 0.1 0.4 0.2
v 0.1 1 0.2
v 0.1 1.3 0.2
v 0.2 0 0.2
v 0.2 0.3 0.2
v 0.2 0.5 0.2
v 0.2 0.6 0.2
v 0.2 0.8 0.2
v 0.3 0.5 0.2
v 0.3 0.8 0.2
v 0.3 1 0.2
v -0.4 0.5 0
v -0.4 0.8 0
v -0.4 1 0
v -0.3 0 0
v -0.3 0.3 0
v -0.3 0.5 0
v -0.3 0.6 0
v -0.3 0.8 0
v -0.2 0 0
v -0.2 0.3 0
v -0.2 0.4 0
v -0.2 1 0
v -0.2 1.1 0
v -0.2 1.2 0
v -0.2 1.3 0
v -0.1 0.9 0
v -0.1 1 0
v -0.1 1.1 0
v -0.1 1.2 0
v 0 0.9 0
v 0 1 0
v 0 1.1 0
v 0 1.2 0
v 0.1 0 0
v 0.1 0.3 0
v 0.1 0.4 0
v 0.1 1 0
v 0.1 1.1 0
v 0.1 1.2 0
v 0.1 1.3 0
v 0.2 0 0
v 0.2 0.3 0
v 0.2 0.5 0
v 0.2 0.6 0
v 0.2 0.8 0
v 0.3 0.5 0
v 0.3 0.8 0
v 0.3 1 0
v -0.3 0 0.2
v -0.2 0 0.2
v 0.1 0 0.2
v 0.2 0 0.2
v -0.3 0 0
v -0.2 0 0
v 0.1 0 0
v 0.2 0 0
v -0.2 0.4 0.2
v 0.1 0.4 0.2
v -0.2 0.4 0
v 0.1 0.4 0
v -0.4 0.5 0.2
v -0.3 0.5 0.2
v 0.2 0.5 0.2
v 0.3 0.5 0.2
v -0.4 0.5 0
v -0.3 0.5 0
v 0.2 0.5 0
v 0.3 0.5 0
v -0.4 1 0.2
v -0.2 1 0.2
v 0.1 1 0.2
v 0.3 1 0.2
v -0.4 1 0
v -0.2 1 0
v 0.1 1 0
v 0.3 1 0
v -0.2 1.3 0.2
v 0.1 1.3 0.2
v -0.2 1.3 0
v 0.1 1.3 0

# faces
f 3/1/1 2/1/1 1/1/1
f 4/1/1 2/1/1 3/1/1
f 5/3/1 4/3/1 3/3/1
f 6/3/1 4/3/1 5/3/1
f 9/1/1 8/1/1 7/1/1
f 10/1/1 8/1/1 9/1/1
f 11/2/1 10/2/1 9/2/1
f 12/2/1 10/2/1 11/2/1
f 15/1/1 14/1/1 13/1/1
f 16/1/1 14/1/1 15/1/1
f 17/1/1 15/1/1 13/1/1
f 17/4/1 16/4/1 15/4/1
f 18/4/1 16/4/1 17/4/1
f 19/1/1 17/1/1 13/1/1
f 19/1/1 18/1/1 17/1/1
f 20/1/1 18/1/1 19/1/1
f 23/1/1 22/1/1 21/1/1
f 24/1/1 22/1/1 23/1/1
f 25/2/1 24/2/1 23/2/1
f 26/2/1 24/2/1 25/2/1
f 27/1/2 28/1/2 29/1/2
f 29/1/2 28/1/2 30/1/2
f 29/2/2 30/2/2 31/2/2
f 31/2/2 30/2/2 32/2/2
f 33/1/2 34/1/2 35/1/2
f 35/1/2 34/1/2 36/1/2
f 33/1/2 35/1/2 37/1/2
f 35/4/2 36/4/2 37/4/2
f 37/4/2 36/4/2 38/4/2
f 33/1/2 37/1/2 39/1/2
f 37/1/2 38/1/2 39/1/2
f 39/1/2 38/1/2 40/1/2
f 41/1/2 42/1/2 43/1/2
f 43/1/2 42/1/2 44/1/2
f 43/2/2 44/2/2 45/2/2
f 45/2/2 44/2/2 46/2/2
f 47/1/2 48/1/2 49/1/2
f 49/1/2 48/1/2 50/1/2
f 49/3/2 50/3/2 51/3/2
f 51/3/2 50/3/2 52/3/2
f 58/1/3 54/1/3 53/1/3
f 59/1/3 54/1/3 58/1/3
f 60/3/3 55/3/3 54/3/3
f 60/1/3 54/1/3 59/1/3
f 61/1/3 57/1/3 56/1/3
f 62/2/3 59/2/3 58/2/3
f 62/1/3 57/1/3 61/1/3
f 62/2/3 58/2/3 57/2/3
f 63/2/3 59/2/3 62/2/3
f 64/3/3 55/3/3 60/3/3
f 64/3/3 60/3/3 59/3/3
f 66/3/3 64/3/3 59/3/3
f 67/1/3 65/1/3 64/1/3
f 67/3/3 64/3/3 66/3/3
f 68/3/3 66/3/3 59/3/3
f 68/1/3 67/1/3 66/1/3
f 69/1/3 65/1/3 67/1/3
f 69/1/3 67/1/3 68/1/3
f 72/2/3 59/2/3 63/2/3
f 73/3/3 69/3/3 68/3/3
f 73/1/3 65/1/3 69/1/3
f 74/1/3 65/1/3 73/1/3
f 75/1/3 71/1/3 70/1/3
f 76/2/3 72/2/3 71/2/3
f 76/1/3 71/1/3 75/1/3
f 77/2/3 59/2/3 72/2/3
f 77/2/3 72/2/3 76/2/3
f 78/3/3 68/3/3 59/3/3
f 78/2/3 59/2/3 77/2/3
f 78/3/3 73/3/3 68/3/3
f 79/3/3 73/3/3 78/3/3
f 80/1/3 79/1/3 78/1/3
f 80/1/3 78/1/3 77/1/3
f 81/3/3 73/3/3 79/3/3
f 81/1/3 79/1/3 80/1/3
f 82/3/3 73/3/3 81/3/3
f 83/1/4 84/1/4 88/1/4
f 88/1/4 84/1/4 89/1/4
f 84/3/4 85/3/4 90/3/4
f 89/1/4 84/1/4 90/1/4
f 86/1/4 87/1/4 91/1/4
f 88/2/4 89/2/4 92/2/4
f 91/1/4 87/1/4 92/1/4
f 87/2/4 88/2/4 92/2/4
f 92/2/4 89/2/4 93/2/4
f 90/3/4 85/3/4 94/3/4
f 89/3/4 90/3/4 94/3/4
f 89/3/4 94/3/4 98/3/4
f 94/1/4 95/1/4 99/1/4
f 98/3/4 94/3/4 99/3/4
f 95/4/4 96/4/4 100/4/4
f 99/1/4 95/1/4 100/1/4
f 96/1/4 97/1/4 101/1/4
f 100/4/4 96/4/4 101/4/4
f 99/1/4 100/1/4 102/1/4
f 98/1/4 99/1/4 102/1/4
f 100/1/4 101/1/4 102/1/4
f 89/3/4 98/3/4 102/3/4
f 102/1/4 101/1/4 103/1/4
f 103/1/4 101/1/4 104/1/4
f 101/1/4 97/1/4 105/1/4
f 104/1/4 101/1/4 105/1/4
f 93/2/4 89/2/4 108/2/4
f 103/1/4 104/1/4 109/1/4
f 102/3/4 103/3/4 109/3/4
f 104/4/4 105/4/4 110/4/4
f 109/1/4 104/1/4 110/1/4
f 105/1/4 97/1/4 111/1/4
f 110/4/4 105/4/4 111/4/4
f 111/1/4 97/1/4 112/1/4
f 106/1/4 107/1/4 113/1/4
f 107/2/4 108/2/4 114/2/4
f 113/1/4 107/1/4 114/1/4
f 108/2/4 89/2/4 115/2/4
f 114/2/4 108/2/4 115/2/4
f 89/3/4 102/3/4 116/3/4
f 115/2/4 89/2/4 116/2/4
f 102/3/4 109/3/4 116/3/4
f 116/3/4 109/3/4 117/3/4
f 116/1/4 117/1/4 118/1/4
f 115/1/4 116/1/4 118/1/4
f 117/3/4 109/3/4 119/3/4
f 118/1/4 117/1/4 119/1/4
f 119/3/4 109/3/4 120/3/4
f 125/1/5 122/1/5 121/1/5
f 126/1/5 122/1/5 125/1/5
f 127/1/5 124/1/5 123/1/5
f 128/1/5 124/1/5 127/1/5
f 131/2/5 130/2/5 129/2/5
f 132/2/5 130/2/5 131/2/5
f 137/1/5 134/1/5 133/1/5
f 138/1/5 134/1/5 137/1/5
f 139/1/5 136/1/5 135/1/5
f 140/1/5 136/1/5 139/1/5
f 141/3/6 142/3/6 145/3/6
f 145/3/6 142/3/6 146/3/6
f 143/3/6 144/3/6 147/3/6
f 147/3/6 144/3/6 148/3/6
f 149/1/6 150/1/6 151/1/6
f 151/1/6 150/1/6 152/1/6
