# MagicaVoxel @ Ephtracy

# group
o 

# material
mtllib chr_knight.mtl
usemtl palette

# normals
vn -1 0 0
vn 1 0 0
vn 0 0 1
vn 0 0 -1
vn 0 -1 0
vn 0 1 0

# texcoords
vt 0.00195312 0.5
vt 0.00976562 0.5
vt 0.0136719 0.5
vt 0.0253906 0.5
vt 0.0332031 0.5
vt 0.0410156 0.5
vt 0.0683594 0.5
vt 0.0800781 0.5
vt 0.0839844 0.5
vt 0.205078 0.5
vt 0.306641 0.5
vt 0.767578 0.5
vt 0.958984 0.5
vt 0.974609 0.5
vt 0.994141 0.5

# verts
v -1 0.7 -2.98023e-08
v -1 0.7 -0.1
v -1 0.8 -2.98023e-08
v -1 0.8 -0.1
v -1 0.9 -2.98023e-08
v -1 0.9 -0.1
v -1 1 -2.98023e-08
v -1 1 -0.1
v -1 1.1 -2.98023e-08
v -1 1.1 -0.1
v -0.9 0.6 -2.98023e-08
v -0.9 0.6 -0.1
v -0.9 0.7 -2.98023e-08
v -0.9 0.7 -0.1
v -0.9 1.1 -2.98023e-08
v -0.9 1.1 -0.1
v -0.9 1.2 -2.98023e-08
v -0.9 1.2 -0.1
v -0.8 0.5 -2.98023e-08
v -0.8 0.5 -0.1
v -0.8 0.6 -2.98023e-08
v -0.8 0.6 -0.1
v -0.8 1.2 -2.98023e-08
v -0.8 1.2 -0.1
v -0.8 1.3 -2.98023e-08
v -0.8 1.3 -0.1
v -0.6 0 -2.98023e-08
v -0.6 0 -0.1
v -0.6 0.8 -2.98023e-08
v -0.6 0.8 -0.1
v -0.6 1 -2.98023e-08
v -0.6 1 -0.1
v -0.6 1.1 -2.98023e-08
v -0.6 1.1 -0.1
v -0.4 0.4 -2.98023e-08
v -0.4 0.4 -0.1
v -0.4 0.5 -2.98023e-08
v -0.4 0.5 -0.1
v -0.4 0.8 0.1
v -0.4 0.8 -0.2
v -0.4 0.9 0.2
v -0.4 0.9 0.1
v -0.4 0.9 -2.98023e-08
v -0.4 0.9 -0.1
v -0.4 0.9 -0.2
v -0.4 0.9 -0.3
v -0.4 1 0.1
v -0.4 1 -2.98023e-08
v -0.4 1 -0.1
v -0.4 1 -0.2
v -0.4 1.1 0.1
v -0.4 1.1 -2.98023e-08
v -0.4 1.1 -0.1
v -0.4 1.1 -0.2
v -0.4 1.2 0.2
v -0.4 1.2 0.1
v -0.4 1.2 -2.98023e-08
v -0.4 1.2 -0.1
v -0.4 1.2 -0.2
v -0.4 1.2 -0.3
v -0.4 1.3 0.1
v -0.4 1.3 -0.2
v -0.3 0.3 0.2
v -0.3 0.3 0.1
v -0.3 0.3 -2.98023e-08
v -0.3 0.3 -0.1
v -0.3 0.3 -0.2
v -0.3 0.3 -0.3
v -0.3 0.4 0.2
v -0.3 0.4 0.1
v -0.3 0.4 -2.98023e-08
v -0.3 0.4 -0.1
v -0.3 0.4 -0.2
v -0.3 0.4 -0.3
v -0.3 0.5 0.1
v -0.3 0.5 -2.98023e-08
v -0.3 0.5 -0.1
v -0.3 0.6 -2.98023e-08
v -0.3 0.6 -0.1
v -0.3 0.6 -0.2
v -0.3 0.7 0.2
v -0.3 0.7 0.1
v -0.3 0.7 -2.98023e-08
v -0.3 0.7 -0.1
v -0.3 0.7 -0.2
v -0.3 0.7 -0.3
v -0.3 0.8 0.1
v -0.3 0.8 -0.2
v -0.3 0.8 -0.3
v -0.3 0.9 0.2
v -0.3 0.9 0.1
v -0.3 0.9 -2.98023e-08
v -0.3 0.9 -0.1
v -0.3 0.9 -0.2
v -0.3 0.9 -0.3
v -0.3 0.9 -0.4
v -0.3 1 0.3
v -0.3 1 0.2
v -0.3 1 0.1
v -0.3 1 -2.98023e-08
v -0.3 1 -0.1
v -0.3 1 -0.2
v -0.3 1.1 0.1
v -0.3 1.1 -2.98023e-08
v -0.3 1.1 -0.1
v -0.3 1.1 -0.2
v -0.3 1.2 0.3
v -0.3 1.2 0.2
v -0.3 1.2 0.1
v -0.3 1.2 -2.98023e-08
v -0.3 1.2 -0.1
v -0.3 1.2 -0.2
v -0.3 1.2 -0.3
v -0.3 1.2 -0.4
v -0.3 1.3 0.2
v -0.3 1.3 0.1
v -0.3 1.3 -0.2
v -0.3 1.3 -0.3
v -0.2 0 -2.98023e-08
v -0.2 0 -0.1
v -0.2 0.2 -2.98023e-08
v -0.2 0.2 -0.1
v -0.2 0.3 -2.98023e-08
v -0.2 0.3 -0.1
v -0.2 0.4 0.1
v -0.2 0.4 -2.98023e-08
v -0.2 0.4 -0.1
v -0.2 0.4 -0.2
v -0.2 0.5 0.1
v -0.2 0.5 -2.98023e-08
v -0.2 0.5 -0.1
v -0.2 0.6 0.2
v -0.2 0.6 0.1
v -0.2 0.6 -0.1
v -0.2 0.6 -0.2
v -0.2 0.6 -0.3
v -0.2 0.7 0.2
v -0.2 0.7 0.1
v -0.2 0.7 -0.2
v -0.2 0.7 -0.3
v -0.2 0.7 -0.4
v -0.2 0.8 -0.3
v -0.2 0.8 -0.4
v -0.2 0.8 -0.5
v -0.2 0.9 -0.3
v -0.2 0.9 -0.4
v -0.2 1.1 -0.4
v -0.2 1.1 -0.5
v -0.2 1.3 0.1
v -0.2 1.3 -0.2
v -0.2 1.4 0.1
v -0.2 1.4 -0.2
v -0.1 0.6 -0.3
v -0.1 0.6 -0.4
v -0.1 0.7 -0.3
v -0.1 0.7 -0.4
v -0.1 0.9 0.2
v -0.1 0.9 0.1
v -0.1 1 0.2
v -0.1 1 0.1
v 0.1 0 -2.98023e-08
v 0.1 0 -0.1
v 0.1 0.2 -2.98023e-08
v 0.1 0.2 -0.1
v 0.1 0.3 -2.98023e-08
v 0.1 0.3 -0.1
v 0.1 0.5 -0.2
v 0.1 0.5 -0.3
v 0.1 0.5 -0.4
v 0.1 0.6 0.2
v 0.1 0.6 0.1
v 0.1 0.6 -0.2
v 0.1 0.6 -0.3
v 0.1 0.6 -0.4
v 0.1 0.7 0.2
v 0.1 0.7 0.1
v 0.1 0.7 -0.3
v 0.1 0.7 -0.4
v 0.1 0.8 -0.3
v 0.1 0.8 -0.4
v 0.1 0.8 -0.5
v 0.1 0.9 -0.3
v 0.1 0.9 -0.5
v 0.2 0.4 -0.3
v 0.2 0.4 -0.4
v 0.2 0.5 -0.3
v 0.2 0.5 -0.4
v 0.2 0.6 -0.3
v 0.2 0.6 -0.4
v 0.2 0.7 0.2
v 0.2 0.7 0.1
v 0.2 0.7 -0.3
v 0.2 0.7 -0.4
v 0.2 0.8 0.1
v 0.2 0.9 0.2
v 0.2 0.9 0.1
v 0.2 1 0.2
v 0.2 1 0.1
v 0.3 0.3 -0.3
v 0.3 0.3 -0.4
v 0.3 0.4 -0.3
v 0.3 0.4 -0.4
v 0.3 0.5 -2.98023e-08
v 0.3 0.5 -0.1
v 0.3 0.5 -0.3
v 0.3 0.5 -0.4
v 0.3 0.6 -2.98023e-08
v 0.3 0.6 -0.1
v 0.3 0.6 -0.3
v 0.3 0.6 -0.4
v 0.4 0.4 -2.98023e-08
v 0.4 0.4 -0.1
v 0.4 0.4 -0.3
v 0.4 0.4 -0.4
v 0.4 0.5 -2.98023e-08
v 0.4 0.5 -0.1
v 0.4 0.5 -0.3
v 0.4 0.5 -0.4
v 0.4 0.6 -0.2
v 0.4 0.6 -0.3
v 0.4 0.7 -0.2
v 0.4 0.7 -0.3
v 0.5 0.3 -0.3
v 0.5 0.3 -0.4
v 0.5 0.4 -0.3
v 0.5 0.4 -0.4
v 0.6 0.4 -0.2
v 0.6 0.4 -0.3
v 0.6 0.5 -0.2
v 0.6 0.5 -0.3
v 0.6 0.6 -2.98023e-08
v 0.6 0.6 -0.1
v 0.6 0.7 -2.98023e-08
v 0.6 0.7 -0.1
v 0.7 0.5 -0.1
v 0.7 0.5 -0.2
v 0.7 0.6 -0.1
v 0.7 0.6 -0.2
v -0.8 0.6 -2.98023e-08
v -0.8 0.6 -0.1
v -0.8 0.7 -2.98023e-08
v -0.8 0.7 -0.1
v -0.8 1.1 -2.98023e-08
v -0.8 1.1 -0.1
v -0.8 1.2 -2.98023e-08
v -0.8 1.2 -0.1
v -0.7 0.5 -2.98023e-08
v -0.7 0.5 -0.1
v -0.7 0.6 -2.98023e-08
v -0.7 0.6 -0.1
v -0.7 0.7 -2.98023e-08
v -0.7 0.7 -0.1
v -0.7 0.8 -2.98023e-08
v -0.7 0.8 -0.1
v -0.7 1 -2.98023e-08
v -0.7 1 -0.1
v -0.7 1.1 -2.98023e-08
v -0.7 1.1 -0.1
v -0.7 1.2 -2.98023e-08
v -0.7 1.2 -0.1
v -0.7 1.3 -2.98023e-08
v -0.7 1.3 -0.1
v -0.5 0 -2.98023e-08
v -0.5 0 -0.1
v -0.5 0.3 -2.98023e-08
v -0.5 0.3 -0.1
v -0.5 0.4 -2.98023e-08
v -0.5 0.4 -0.1
v -0.5 0.9 -2.98023e-08
v -0.5 0.9 -0.1
v -0.5 1 -2.98023e-08
v -0.5 1 -0.1
v -0.5 1.1 -2.98023e-08
v -0.5 1.1 -0.1
v -0.4 0.3 -2.98023e-08
v -0.4 0.3 -0.1
v -0.4 0.4 -2.98023e-08
v -0.4 0.4 -0.1
v -0.3 0.4 -2.98023e-08
v -0.3 0.4 -0.1
v -0.3 0.5 -2.98023e-08
v -0.3 0.5 -0.1
v -0.2 0.7 0.2
v -0.2 0.7 0.1
v -0.2 0.8 0.1
v -0.2 0.9 0.1
v -0.2 1 0.2
v -0.2 1 0.1
v -0.1 0 -2.98023e-08
v -0.1 0 -0.1
v -0.1 0.2 -2.98023e-08
v -0.1 0.2 -0.1
v -0.1 0.3 -2.98023e-08
v -0.1 0.3 -0.1
v -0.1 0.6 0.2
v -0.1 0.6 0.1
v -0.1 0.7 0.2
v -0.1 0.7 0.1
v -0.1 0.7 -0.3
v -0.1 0.7 -0.4
v -0.1 0.8 -0.3
v -0.1 0.8 -0.4
v -0.1 0.8 -0.5
v -0.1 0.9 -0.3
v -0.1 0.9 -0.5
v 0 0.9 0.2
v 0 0.9 0.1
v 0 1 0.2
v 0 1 0.1
v 0.1 0.6 -0.3
v 0.1 0.6 -0.4
v 0.1 0.7 -0.3
v 0.1 0.7 -0.4
v 0.2 0 -2.98023e-08
v 0.2 0 -0.1
v 0.2 0.2 -2.98023e-08
v 0.2 0.2 -0.1
v 0.2 0.3 -2.98023e-08
v 0.2 0.3 -0.1
v 0.2 0.4 0.1
v 0.2 0.4 -2.98023e-08
v 0.2 0.4 -0.1
v 0.2 0.4 -0.2
v 0.2 0.5 0.1
v 0.2 0.5 -2.98023e-08
v 0.2 0.5 -0.1
v 0.2 0.5 -0.2
v 0.2 0.5 -0.3
v 0.2 0.5 -0.4
v 0.2 0.6 0.2
v 0.2 0.6 0.1
v 0.2 0.6 -2.98023e-08
v 0.2 0.6 -0.1
v 0.2 0.6 -0.3
v 0.2 0.6 -0.4
v 0.2 0.7 0.2
v 0.2 0.7 0.1
v 0.2 0.7 -0.3
v 0.2 0.7 -0.4
v 0.2 0.8 -0.3
v 0.2 0.8 -0.4
v 0.2 0.8 -0.5
v 0.2 0.9 -0.3
v 0.2 0.9 -0.4
v 0.2 1.1 -0.4
v 0.2 1.1 -0.5
v 0.2 1.3 0.1
v 0.2 1.3 -0.2
v 0.2 1.4 0.1
v 0.2 1.4 -0.2
v 0.3 0.3 0.2
v 0.3 0.3 0.1
v 0.3 0.3 -2.98023e-08
v 0.3 0.3 -0.1
v 0.3 0.3 -0.2
v 0.3 0.3 -0.3
v 0.3 0.4 0.2
v 0.3 0.4 0.1
v 0.3 0.4 -2.98023e-08
v 0.3 0.4 -0.1
v 0.3 0.4 -0.2
v 0.3 0.4 -0.3
v 0.3 0.4 -0.4
v 0.3 0.5 0.1
v 0.3 0.5 -2.98023e-08
v 0.3 0.5 -0.3
v 0.3 0.5 -0.4
v 0.3 0.6 -2.98023e-08
v 0.3 0.6 -0.1
v 0.3 0.6 -0.3
v 0.3 0.6 -0.4
v 0.3 0.7 0.2
v 0.3 0.7 0.1
v 0.3 0.7 -2.98023e-08
v 0.3 0.7 -0.1
v 0.3 0.7 -0.2
v 0.3 0.7 -0.3
v 0.3 0.7 -0.4
v 0.3 0.8 0.1
v 0.3 0.8 -0.1
v 0.3 0.8 -0.2
v 0.3 0.8 -0.3
v 0.3 0.9 0.2
v 0.3 0.9 0.1
v 0.3 0.9 -2.98023e-08
v 0.3 0.9 -0.1
v 0.3 0.9 -0.2
v 0.3 0.9 -0.3
v 0.3 0.9 -0.4
v 0.3 1 0.3
v 0.3 1 0.2
v 0.3 1 0.1
v 0.3 1 -2.98023e-08
v 0.3 1 -0.1
v 0.3 1 -0.2
v 0.3 1.1 0.1
v 0.3 1.1 -2.98023e-08
v 0.3 1.1 -0.1
v 0.3 1.1 -0.2
v 0.3 1.2 0.3
v 0.3 1.2 0.2
v 0.3 1.2 0.1
v 0.3 1.2 -2.98023e-08
v 0.3 1.2 -0.1
v 0.3 1.2 -0.2
v 0.3 1.2 -0.3
v 0.3 1.2 -0.4
v 0.3 1.3 0.2
v 0.3 1.3 0.1
v 0.3 1.3 -0.2
v 0.3 1.3 -0.3
v 0.4 0.3 -2.98023e-08
v 0.4 0.3 -0.1
v 0.4 0.3 -0.3
v 0.4 0.3 -0.4
v 0.4 0.4 -2.98023e-08
v 0.4 0.4 -0.1
v 0.4 0.4 -0.3
v 0.4 0.4 -0.4
v 0.4 0.5 -2.98023e-08
v 0.4 0.5 -0.1
v 0.4 0.5 -0.3
v 0.4 0.5 -0.4
v 0.4 0.6 -2.98023e-08
v 0.4 0.6 -0.1
v 0.4 0.6 -0.3
v 0.4 0.6 -0.4
v 0.4 0.7 -0.1
v 0.4 0.7 -0.2
v 0.4 0.8 0.1
v 0.4 0.8 -0.1
v 0.4 0.8 -0.2
v 0.4 0.9 0.2
v 0.4 0.9 0.1
v 0.4 0.9 -2.98023e-08
v 0.4 0.9 -0.1
v 0.4 0.9 -0.2
v 0.4 0.9 -0.3
v 0.4 1 0.1
v 0.4 1 -2.98023e-08
v 0.4 1 -0.1
v 0.4 1 -0.2
v 0.4 1.1 0.1
v 0.4 1.1 -2.98023e-08
v 0.4 1.1 -0.1
v 0.4 1.1 -0.2
v 0.4 1.2 0.2
v 0.4 1.2 0.1
v 0.4 1.2 -2.98023e-08
v 0.4 1.2 -0.1
v 0.4 1.2 -0.2
v 0.4 1.2 -0.3
v 0.4 1.3 0.1
v 0.4 1.3 -0.2
v 0.5 0.4 -2.98023e-08
v 0.5 0.4 -0.1
v 0.5 0.4 -0.3
v 0.5 0.4 -0.4
v 0.5 0.5 -2.98023e-08
v 0.5 0.5 -0.1
v 0.5 0.5 -0.3
v 0.5 0.5 -0.4
v 0.5 0.6 -0.2
v 0.5 0.6 -0.3
v 0.5 0.7 -0.2
v 0.5 0.7 -0.3
v 0.6 0.3 -0.3
v 0.6 0.3 -0.4
v 0.6 0.4 -0.3
v 0.6 0.4 -0.4
v 0.7 0.4 -0.2
v 0.7 0.4 -0.3
v 0.7 0.5 -0.2
v 0.7 0.5 -0.3
v 0.7 0.6 -2.98023e-08
v 0.7 0.6 -0.1
v 0.7 0.7 -2.98023e-08
v 0.7 0.7 -0.1
v 0.8 0.5 -0.1
v 0.8 0.5 -0.2
v 0.8 0.6 -0.1
v 0.8 0.6 -0.2
v -0.3 1 0.3
v -0.3 1.2 0.3
v 0.3 1 0.3
v 0.3 1.2 0.3
v -0.4 0.9 0.2
v -0.4 1.2 0.2
v -0.3 0.3 0.2
v -0.3 0.4 0.2
v -0.3 0.7 0.2
v -0.3 0.9 0.2
v -0.3 1 0.2
v -0.3 1.2 0.2
v -0.3 1.3 0.2
v -0.2 0.3 0.2
v -0.2 0.4 0.2
v -0.2 0.6 0.2
v -0.2 0.7 0.2
v -0.2 1 0.2
v -0.1 0.3 0.2
v -0.1 0.4 0.2
v -0.1 0.6 0.2
v -0.1 0.7 0.2
v -0.1 0.9 0.2
v -0.1 1 0.2
v 0 0.3 0.2
v 0 0.4 0.2
v 0 0.9 0.2
v 0 1 0.2
v 0.1 0.3 0.2
v 0.1 0.4 0.2
v 0.1 0.6 0.2
v 0.1 0.7 0.2
v 0.2 0.3 0.2
v 0.2 0.4 0.2
v 0.2 0.6 0.2
v 0.2 0.7 0.2
v 0.2 0.9 0.2
v 0.2 1 0.2
v 0.3 0.3 0.2
v 0.3 0.4 0.2
v 0.3 0.7 0.2
v 0.3 0.9 0.2
v 0.3 1 0.2
v 0.3 1.2 0.2
v 0.3 1.3 0.2
v 0.4 0.9 0.2
v 0.4 1.2 0.2
v -0.4 0.8 0.1
v -0.4 0.9 0.1
v -0.4 1.2 0.1
v -0.4 1.3 0.1
v -0.3 0.5 0.1
v -0.3 0.7 0.1
v -0.3 0.8 0.1
v -0.3 0.9 0.1
v -0.3 1.2 0.1
v -0.3 1.3 0.1
v -0.2 0.4 0.1
v -0.2 0.5 0.1
v -0.2 0.6 0.1
v -0.2 0.7 0.1
v -0.2 0.8 0.1
v -0.2 0.9 0.1
v -0.2 1 0.1
v -0.2 1.3 0.1
v -0.2 1.4 0.1
v -0.1 0.4 0.1
v -0.1 0.6 0.1
v -0.1 0.7 0.1
v -0.1 0.8 0.1
v -0.1 0.9 0.1
v -0.1 1 0.1
v 0 0.4 0.1
v 0 0.6 0.1
v 0 0.7 0.1
v 0 0.8 0.1
v 0 0.9 0.1
v 0 1 0.1
v 0.1 0.4 0.1
v 0.1 0.5 0.1
v 0.1 0.6 0.1
v 0.1 0.7 0.1
v 0.1 0.8 0.1
v 0.1 0.9 0.1
v 0.2 0.4 0.1
v 0.2 0.5 0.1
v 0.2 0.6 0.1
v 0.2 0.7 0.1
v 0.2 0.8 0.1
v 0.2 0.9 0.1
v 0.2 1 0.1
v 0.2 1.3 0.1
v 0.2 1.4 0.1
v 0.3 0.5 0.1
v 0.3 0.7 0.1
v 0.3 0.8 0.1
v 0.3 0.9 0.1
v 0.3 1.2 0.1
v 0.3 1.3 0.1
v 0.4 0.8 0.1
v 0.4 0.9 0.1
v 0.4 1.2 0.1
v 0.4 1.3 0.1
v -1 0.7 -2.98023e-08
v -1 0.8 -2.98023e-08
v -1 0.9 -2.98023e-08
v -1 1 -2.98023e-08
v -1 1.1 -2.98023e-08
v -0.9 0.6 -2.98023e-08
v -0.9 0.7 -2.98023e-08
v -0.9 0.8 -2.98023e-08
v -0.9 0.9 -2.98023e-08
v -0.9 1 -2.98023e-08
v -0.9 1.1 -2.98023e-08
v -0.9 1.2 -2.98023e-08
v -0.8 0.5 -2.98023e-08
v -0.8 0.6 -2.98023e-08
v -0.8 0.7 -2.98023e-08
v -0.8 1.1 -2.98023e-08
v -0.8 1.2 -2.98023e-08
v -0.8 1.3 -2.98023e-08
v -0.7 0.5 -2.98023e-08
v -0.7 0.6 -2.98023e-08
v -0.7 0.7 -2.98023e-08
v -0.7 0.8 -2.98023e-08
v -0.7 1 -2.98023e-08
v -0.7 1.1 -2.98023e-08
v -0.7 1.2 -2.98023e-08
v -0.7 1.3 -2.98023e-08
v -0.6 0 -2.98023e-08
v -0.6 0.8 -2.98023e-08
v -0.6 0.9 -2.98023e-08
v -0.6 1 -2.98023e-08
v -0.6 1.1 -2.98023e-08
v -0.5 0 -2.98023e-08
v -0.5 0.3 -2.98023e-08
v -0.5 0.4 -2.98023e-08
v -0.5 0.9 -2.98023e-08
v -0.5 1 -2.98023e-08
v -0.5 1.1 -2.98023e-08
v -0.4 0.3 -2.98023e-08
v -0.4 0.4 -2.98023e-08
v -0.4 0.5 -2.98023e-08
v -0.4 0.9 -2.98023e-08
v -0.4 1 -2.98023e-08
v -0.4 1.1 -2.98023e-08
v -0.4 1.2 -2.98023e-08
v -0.3 0.4 -2.98023e-08
v -0.3 0.5 -2.98023e-08
v -0.3 0.9 -2.98023e-08
v -0.3 1 -2.98023e-08
v -0.3 1.1 -2.98023e-08
v -0.3 1.2 -2.98023e-08
v -0.2 0 -2.98023e-08
v -0.2 0.2 -2.98023e-08
v -0.2 0.3 -2.98023e-08
v -0.1 0 -2.98023e-08
v -0.1 0.2 -2.98023e-08
v -0.1 0.3 -2.98023e-08
v 0.1 0 -2.98023e-08
v 0.1 0.2 -2.98023e-08
v 0.1 0.3 -2.98023e-08
v 0.2 0 -2.98023e-08
v 0.2 0.2 -2.98023e-08
v 0.2 0.3 -2.98023e-08
v 0.3 0.3 -2.98023e-08
v 0.3 0.4 -2.98023e-08
v 0.3 0.5 -2.98023e-08
v 0.3 0.6 -2.98023e-08
v 0.3 0.9 -2.98023e-08
v 0.3 1 -2.98023e-08
v 0.3 1.1 -2.98023e-08
v 0.3 1.2 -2.98023e-08
v 0.4 0.3 -2.98023e-08
v 0.4 0.4 -2.98023e-08
v 0.4 0.5 -2.98023e-08
v 0.4 0.6 -2.98023e-08
v 0.4 0.9 -2.98023e-08
v 0.4 1 -2.98023e-08
v 0.4 1.1 -2.98023e-08
v 0.4 1.2 -2.98023e-08
v 0.5 0.4 -2.98023e-08
v 0.5 0.5 -2.98023e-08
v 0.6 0.6 -2.98023e-08
v 0.6 0.7 -2.98023e-08
v 0.7 0.6 -2.98023e-08
v 0.7 0.7 -2.98023e-08
v -0.4 1 -0.1
v -0.4 1.1 -0.1
v -0.3 1 -0.1
v -0.3 1.1 -0.1
v 0.3 0.7 -0.1
v 0.3 0.8 -0.1
v 0.3 1 -0.1
v 0.3 1.1 -0.1
v 0.4 0.7 -0.1
v 0.4 0.8 -0.1
v 0.4 1 -0.1
v 0.4 1.1 -0.1
v 0.7 0.5 -0.1
v 0.7 0.6 -0.1
v 0.8 0.5 -0.1
v 0.8 0.6 -0.1
v -0.4 0.9 -0.2
v -0.4 1 -0.2
v -0.4 1.1 -0.2
v -0.4 1.2 -0.2
v -0.3 0.9 -0.2
v -0.3 1 -0.2
v -0.3 1.1 -0.2
v -0.3 1.2 -0.2
v 0.3 0.9 -0.2
v 0.3 1 -0.2
v 0.3 1.1 -0.2
v 0.3 1.2 -0.2
v 0.4 0.6 -0.2
v 0.4 0.7 -0.2
v 0.4 0.9 -0.2
v 0.4 1 -0.2
v 0.4 1.1 -0.2
v 0.4 1.2 -0.2
v 0.5 0.6 -0.2
v 0.5 0.7 -0.2
v 0.6 0.4 -0.2
v 0.6 0.5 -0.2
v 0.7 0.4 -0.2
v 0.7 0.5 -0.2
v 0.2 0.4 -0.3
v 0.2 0.5 -0.3
v 0.3 0.3 -0.3
v 0.3 0.4 -0.3
v 0.3 0.5 -0.3
v 0.3 0.6 -0.3
v 0.4 0.3 -0.3
v 0.4 0.4 -0.3
v 0.4 0.5 -0.3
v 0.4 0.6 -0.3
v 0.5 0.3 -0.3
v 0.5 0.4 -0.3
v 0.5 0.5 -0.3
v 0.6 0.3 -0.3
v 0.6 0.4 -0.3
v -0.4 0.9 0.1
v -0.4 1 0.1
v -0.4 1.1 0.1
v -0.4 1.2 0.1
v -0.3 0.9 0.1
v -0.3 1 0.1
v -0.3 1.1 0.1
v -0.3 1.2 0.1
v 0.3 0.9 0.1
v 0.3 1 0.1
v 0.3 1.1 0.1
v 0.3 1.2 0.1
v 0.4 0.9 0.1
v 0.4 1 0.1
v 0.4 1.1 0.1
v 0.4 1.2 0.1
v -0.4 1 -2.98023e-08
v -0.4 1.1 -2.98023e-08
v -0.3 1 -2.98023e-08
v -0.3 1.1 -2.98023e-08
v 0.2 0.5 -2.98023e-08
v 0.2 0.6 -2.98023e-08
v 0.3 0.5 -2.98023e-08
v 0.3 0.6 -2.98023e-08
v 0.3 1 -2.98023e-08
v 0.3 1.1 -2.98023e-08
v 0.4 1 -2.98023e-08
v 0.4 1.1 -2.98023e-08
v -1 0.7 -0.1
v -1 0.8 -0.1
v -1 0.9 -0.1
v -1 1 -0.1
v -1 1.1 -0.1
v -0.9 0.6 -0.1
v -0.9 0.7 -0.1
v -0.9 0.8 -0.1
v -0.9 0.9 -0.1
v -0.9 1 -0.1
v -0.9 1.1 -0.1
v -0.9 1.2 -0.1
v -0.8 0.5 -0.1
v -0.8 0.6 -0.1
v -0.8 0.7 -0.1
v -0.8 1.1 -0.1
v -0.8 1.2 -0.1
v -0.8 1.3 -0.1
v -0.7 0.5 -0.1
v -0.7 0.6 -0.1
v -0.7 0.7 -0.1
v -0.7 0.8 -0.1
v -0.7 1 -0.1
v -0.7 1.1 -0.1
v -0.7 1.2 -0.1
v -0.7 1.3 -0.1
v -0.6 0 -0.1
v -0.6 0.8 -0.1
v -0.6 0.9 -0.1
v -0.6 1 -0.1
v -0.6 1.1 -0.1
v -0.5 0 -0.1
v -0.5 0.3 -0.1
v -0.5 0.4 -0.1
v -0.5 0.9 -0.1
v -0.5 1 -0.1
v -0.5 1.1 -0.1
v -0.4 0.3 -0.1
v -0.4 0.4 -0.1
v -0.4 0.5 -0.1
v -0.4 0.9 -0.1
v -0.4 1 -0.1
v -0.4 1.1 -0.1
v -0.4 1.2 -0.1
v -0.3 0.4 -0.1
v -0.3 0.5 -0.1
v -0.3 0.6 -0.1
v -0.3 0.9 -0.1
v -0.3 1 -0.1
v -0.3 1.1 -0.1
v -0.3 1.2 -0.1
v -0.2 0 -0.1
v -0.2 0.2 -0.1
v -0.2 0.3 -0.1
v -0.2 0.5 -0.1
v -0.2 0.6 -0.1
v -0.1 0 -0.1
v -0.1 0.2 -0.1
v -0.1 0.3 -0.1
v 0.1 0 -0.1
v 0.1 0.2 -0.1
v 0.1 0.3 -0.1
v 0.2 0 -0.1
v 0.2 0.2 -0.1
v 0.2 0.3 -0.1
v 0.3 0.3 -0.1
v 0.3 0.4 -0.1
v 0.3 0.5 -0.1
v 0.3 0.6 -0.1
v 0.3 0.9 -0.1
v 0.3 1 -0.1
v 0.3 1.1 -0.1
v 0.3 1.2 -0.1
v 0.4 0.3 -0.1
v 0.4 0.4 -0.1
v 0.4 0.5 -0.1
v 0.4 0.6 -0.1
v 0.4 0.9 -0.1
v 0.4 1 -0.1
v 0.4 1.1 -0.1
v 0.4 1.2 -0.1
v 0.5 0.4 -0.1
v 0.5 0.5 -0.1
v 0.6 0.6 -0.1
v 0.6 0.7 -0.1
v 0.7 0.6 -0.1
v 0.7 0.7 -0.1
v -0.4 0.8 -0.2
v -0.4 0.9 -0.2
v -0.4 1.2 -0.2
v -0.4 1.3 -0.2
v -0.3 0.6 -0.2
v -0.3 0.7 -0.2
v -0.3 0.8 -0.2
v -0.3 0.9 -0.2
v -0.3 1.2 -0.2
v -0.3 1.3 -0.2
v -0.2 0.4 -0.2
v -0.2 0.6 -0.2
v -0.2 0.7 -0.2
v -0.2 1.3 -0.2
v -0.2 1.4 -0.2
v -0.1 0.4 -0.2
v -0.1 0.6 -0.2
v 0 0.4 -0.2
v 0 0.6 -0.2
v 0.1 0.4 -0.2
v 0.1 0.5 -0.2
v 0.1 0.6 -0.2
v 0.2 0.4 -0.2
v 0.2 0.5 -0.2
v 0.2 1.3 -0.2
v 0.2 1.4 -0.2
v 0.3 0.7 -0.2
v 0.3 0.8 -0.2
v 0.3 0.9 -0.2
v 0.3 1.2 -0.2
v 0.3 1.3 -0.2
v 0.4 0.7 -0.2
v 0.4 0.8 -0.2
v 0.4 0.9 -0.2
v 0.4 1.2 -0.2
v 0.4 1.3 -0.2
v 0.7 0.5 -0.2
v 0.7 0.6 -0.2
v 0.8 0.5 -0.2
v 0.8 0.6 -0.2
v -0.4 0.9 -0.3
v -0.4 1.2 -0.3
v -0.3 0.3 -0.3
v -0.3 0.4 -0.3
v -0.3 0.7 -0.3
v -0.3 0.8 -0.3
v -0.3 0.9 -0.3
v -0.3 1.2 -0.3
v -0.3 1.3 -0.3
v -0.2 0.3 -0.3
v -0.2 0.4 -0.3
v -0.2 0.6 -0.3
v -0.2 0.7 -0.3
v -0.2 0.8 -0.3
v -0.2 0.9 -0.3
v -0.1 0.3 -0.3
v -0.1 0.4 -0.3
v -0.1 0.6 -0.3
v -0.1 0.7 -0.3
v -0.1 0.8 -0.3
v -0.1 0.9 -0.3
v 0 0.3 -0.3
v 0 0.4 -0.3
v 0.1 0.3 -0.3
v 0.1 0.4 -0.3
v 0.1 0.6 -0.3
v 0.1 0.7 -0.3
v 0.1 0.8 -0.3
v 0.1 0.9 -0.3
v 0.2 0.3 -0.3
v 0.2 0.4 -0.3
v 0.2 0.6 -0.3
v 0.2 0.7 -0.3
v 0.2 0.8 -0.3
v 0.2 0.9 -0.3
v 0.3 0.3 -0.3
v 0.3 0.4 -0.3
v 0.3 0.7 -0.3
v 0.3 0.8 -0.3
v 0.3 0.9 -0.3
v 0.3 1.2 -0.3
v 0.3 1.3 -0.3
v 0.4 0.6 -0.3
v 0.4 0.7 -0.3
v 0.4 0.9 -0.3
v 0.4 1.2 -0.3
v 0.5 0.6 -0.3
v 0.5 0.7 -0.3
v 0.6 0.4 -0.3
v 0.6 0.5 -0.3
v 0.7 0.4 -0.3
v 0.7 0.5 -0.3
v -0.3 0.9 -0.4
v -0.3 1.2 -0.4
v -0.2 0.7 -0.4
v -0.2 0.8 -0.4
v -0.2 0.9 -0.4
v -0.2 1.1 -0.4
v -0.1 0.6 -0.4
v -0.1 0.7 -0.4
v -0.1 0.8 -0.4
v 0.1 0.5 -0.4
v 0.1 0.6 -0.4
v 0.1 0.7 -0.4
v 0.1 0.8 -0.4
v 0.2 0.4 -0.4
v 0.2 0.5 -0.4
v 0.2 0.6 -0.4
v 0.2 0.7 -0.4
v 0.2 0.8 -0.4
v 0.2 0.9 -0.4
v 0.2 1.1 -0.4
v 0.3 0.3 -0.4
v 0.3 0.4 -0.4
v 0.3 0.5 -0.4
v 0.3 0.6 -0.4
v 0.3 0.7 -0.4
v 0.3 0.9 -0.4
v 0.3 1.2 -0.4
v 0.4 0.3 -0.4
v 0.4 0.4 -0.4
v 0.4 0.5 -0.4
v 0.4 0.6 -0.4
v 0.5 0.3 -0.4
v 0.5 0.4 -0.4
v 0.5 0.5 -0.4
v 0.6 0.3 -0.4
v 0.6 0.4 -0.4
v -0.2 0.8 -0.5
v -0.2 1.1 -0.5
v -0.1 0.8 -0.5
v -0.1 0.9 -0.5
v 0.1 0.8 -0.5
v 0.1 0.9 -0.5
v 0.2 0.8 -0.5
v 0.2 1.1 -0.5
v -0.6 0 -2.98023e-08
v -0.5 0 -2.98023e-08
v -0.2 0 -2.98023e-08
v -0.1 0 -2.98023e-08
v 0.1 0 -2.98023e-08
v 0.2 0 -2.98023e-08
v -0.6 0 -0.1
v -0.5 0 -0.1
v -0.2 0 -0.1
v -0.1 0 -0.1
v 0.1 0 -0.1
v 0.2 0 -0.1
v -0.3 0.3 0.2
v -0.2 0.3 0.2
v -0.1 0.3 0.2
v 0 0.3 0.2
v 0.1 0.3 0.2
v 0.2 0.3 0.2
v 0.3 0.3 0.2
v -0.3 0.3 0.1
v -0.2 0.3 0.1
v 0.2 0.3 0.1
v 0.3 0.3 0.1
v -0.5 0.3 -2.98023e-08
v -0.4 0.3 -2.98023e-08
v -0.3 0.3 -2.98023e-08
v -0.2 0.3 -2.98023e-08
v -0.1 0.3 -2.98023e-08
v 0.1 0.3 -2.98023e-08
v 0.2 0.3 -2.98023e-08
v 0.3 0.3 -2.98023e-08
v 0.4 0.3 -2.98023e-08
v -0.5 0.3 -0.1
v -0.4 0.3 -0.1
v -0.3 0.3 -0.1
v -0.2 0.3 -0.1
v -0.1 0.3 -0.1
v 0.1 0.3 -0.1
v 0.2 0.3 -0.1
v 0.3 0.3 -0.1
v 0.4 0.3 -0.1
v -0.3 0.3 -0.2
v -0.2 0.3 -0.2
v 0.2 0.3 -0.2
v 0.3 0.3 -0.2
v -0.3 0.3 -0.3
v -0.2 0.3 -0.3
v -0.1 0.3 -0.3
v 0 0.3 -0.3
v 0.1 0.3 -0.3
v 0.2 0.3 -0.3
v 0.3 0.3 -0.3
v 0.4 0.3 -0.3
v 0.5 0.3 -0.3
v 0.6 0.3 -0.3
v 0.3 0.3 -0.4
v 0.4 0.3 -0.4
v 0.5 0.3 -0.4
v 0.6 0.3 -0.4
v -0.4 0.4 -2.98023e-08
v -0.3 0.4 -2.98023e-08
v 0.4 0.4 -2.98023e-08
v 0.5 0.4 -2.98023e-08
v -0.4 0.4 -0.1
v -0.3 0.4 -0.1
v 0.4 0.4 -0.1
v 0.5 0.4 -0.1
v 0.6 0.4 -0.2
v 0.7 0.4 -0.2
v 0.2 0.4 -0.3
v 0.3 0.4 -0.3
v 0.4 0.4 -0.3
v 0.5 0.4 -0.3
v 0.6 0.4 -0.3
v 0.7 0.4 -0.3
v 0.2 0.4 -0.4
v 0.3 0.4 -0.4
v 0.4 0.4 -0.4
v 0.5 0.4 -0.4
v -0.3 0.5 0.1
v -0.2 0.5 0.1
v 0.2 0.5 0.1
v 0.3 0.5 0.1
v -0.8 0.5 -2.98023e-08
v -0.7 0.5 -2.98023e-08
v -0.3 0.5 -2.98023e-08
v -0.2 0.5 -2.98023e-08
v 0.2 0.5 -2.98023e-08
v 0.3 0.5 -2.98023e-08
v 0.4 0.5 -2.98023e-08
v -0.8 0.5 -0.1
v -0.7 0.5 -0.1
v -0.3 0.5 -0.1
v -0.2 0.5 -0.1
v 0.3 0.5 -0.1
v 0.4 0.5 -0.1
v 0.7 0.5 -0.1
v 0.8 0.5 -0.1
v 0.1 0.5 -0.2
v 0.2 0.5 -0.2
v 0.7 0.5 -0.2
v 0.8 0.5 -0.2
v 0.1 0.5 -0.3
v 0.2 0.5 -0.3
v 0.3 0.5 -0.3
v 0.4 0.5 -0.3
v 0.1 0.5 -0.4
v 0.2 0.5 -0.4
v 0.3 0.5 -0.4
v 0.4 0.5 -0.4
v -0.2 0.6 0.2
v -0.1 0.6 0.2
v 0.1 0.6 0.2
v 0.2 0.6 0.2
v -0.2 0.6 0.1
v -0.1 0.6 0.1
v 0.1 0.6 0.1
v 0.2 0.6 0.1
v -0.9 0.6 -2.98023e-08
v -0.8 0.6 -2.98023e-08
v 0.2 0.6 -2.98023e-08
v 0.3 0.6 -2.98023e-08
v 0.6 0.6 -2.98023e-08
v 0.7 0.6 -2.98023e-08
v -0.9 0.6 -0.1
v -0.8 0.6 -0.1
v -0.3 0.6 -0.1
v -0.2 0.6 -0.1
v 0.2 0.6 -0.1
v 0.3 0.6 -0.1
v 0.6 0.6 -0.1
v 0.7 0.6 -0.1
v -0.3 0.6 -0.2
v -0.2 0.6 -0.2
v -0.1 0.6 -0.2
v 0 0.6 -0.2
v 0.1 0.6 -0.2
v 0.4 0.6 -0.2
v 0.5 0.6 -0.2
v -0.2 0.6 -0.3
v -0.1 0.6 -0.3
v 0.1 0.6 -0.3
v 0.2 0.6 -0.3
v 0.3 0.6 -0.3
v 0.4 0.6 -0.3
v 0.5 0.6 -0.3
v -0.1 0.6 -0.4
v 0.1 0.6 -0.4
v 0.2 0.6 -0.4
v 0.3 0.6 -0.4
v -0.3 0.7 0.2
v -0.2 0.7 0.2
v 0.2 0.7 0.2
v 0.3 0.7 0.2
v -0.3 0.7 0.1
v -0.2 0.7 0.1
v 0.2 0.7 0.1
v 0.3 0.7 0.1
v -1 0.7 -2.98023e-08
v -0.9 0.7 -2.98023e-08
v -0.8 0.7 -2.98023e-08
v -0.7 0.7 -2.98023e-08
v -1 0.7 -0.1
v -0.9 0.7 -0.1
v -0.8 0.7 -0.1
v -0.7 0.7 -0.1
v 0.3 0.7 -0.1
v 0.4 0.7 -0.1
v -0.3 0.7 -0.2
v -0.2 0.7 -0.2
v 0.3 0.7 -0.2
v 0.4 0.7 -0.2
v -0.3 0.7 -0.3
v -0.2 0.7 -0.3
v -0.1 0.7 -0.3
v 0.1 0.7 -0.3
v 0.2 0.7 -0.3
v -0.2 0.7 -0.4
v -0.1 0.7 -0.4
v 0.1 0.7 -0.4
v 0.2 0.7 -0.4
v -0.4 0.8 0.1
v -0.3 0.8 0.1
v 0.3 0.8 0.1
v 0.4 0.8 0.1
v -0.7 0.8 -2.98023e-08
v -0.6 0.8 -2.98023e-08
v -0.7 0.8 -0.1
v -0.6 0.8 -0.1
v 0.3 0.8 -0.1
v 0.4 0.8 -0.1
v -0.4 0.8 -0.2
v -0.3 0.8 -0.2
v -0.2 0.8 -0.4
v -0.1 0.8 -0.4
v 0.1 0.8 -0.4
v 0.2 0.8 -0.4
v -0.2 0.8 -0.5
v -0.1 0.8 -0.5
v 0.1 0.8 -0.5
v 0.2 0.8 -0.5
v -0.4 0.9 0.2
v -0.3 0.9 0.2
v -0.1 0.9 0.2
v 0 0.9 0.2
v 0.3 0.9 0.2
v 0.4 0.9 0.2
v -0.4 0.9 0.1
v -0.3 0.9 0.1
v -0.1 0.9 0.1
v 0 0.9 0.1
v 0.3 0.9 0.1
v 0.4 0.9 0.1
v -0.4 0.9 -0.2
v -0.3 0.9 -0.2
v 0.3 0.9 -0.2
v 0.4 0.9 -0.2
v -0.4 0.9 -0.3
v -0.3 0.9 -0.3
v -0.2 0.9 -0.3
v -0.1 0.9 -0.3
v 0.1 0.9 -0.3
v 0.2 0.9 -0.3
v 0.3 0.9 -0.3
v 0.4 0.9 -0.3
v -0.3 0.9 -0.4
v -0.2 0.9 -0.4
v 0.2 0.9 -0.4
v 0.3 0.9 -0.4
v -0.1 0.9 -0.5
v 0.1 0.9 -0.5
v -0.3 1 0.3
v 0.3 1 0.3
v -0.3 1 0.2
v -0.2 1 0.2
v -0.1 1 0.2
v 0 1 0.2
v 0.2 1 0.2
v 0.3 1 0.2
v -0.4 1 0.1
v -0.3 1 0.1
v -0.2 1 0.1
v -0.1 1 0.1
v 0 1 0.1
v 0.2 1 0.1
v 0.3 1 0.1
v 0.4 1 0.1
v -0.4 1 -2.98023e-08
v -0.3 1 -2.98023e-08
v 0.3 1 -2.98023e-08
v 0.4 1 -2.98023e-08
v -0.4 1 -0.1
v -0.3 1 -0.1
v 0.3 1 -0.1
v 0.4 1 -0.1
v -0.4 1 -0.2
v -0.3 1 -0.2
v 0.3 1 -0.2
v 0.4 1 -0.2
v -0.4 1.1 -2.98023e-08
v -0.3 1.1 -2.98023e-08
v 0.3 1.1 -2.98023e-08
v 0.4 1.1 -2.98023e-08
v -0.4 1.1 -0.1
v -0.3 1.1 -0.1
v 0.3 1.1 -0.1
v 0.4 1.1 -0.1
v -0.4 1.2 0.1
v -0.3 1.2 0.1
v 0.3 1.2 0.1
v 0.4 1.2 0.1
v -0.8 1.2 -2.98023e-08
v -0.7 1.2 -2.98023e-08
v -0.4 1.2 -2.98023e-08
v -0.3 1.2 -2.98023e-08
v 0.3 1.2 -2.98023e-08
v 0.4 1.2 -2.98023e-08
v -0.8 1.2 -0.1
v -0.7 1.2 -0.1
v -0.4 1.2 -0.1
v -0.3 1.2 -0.1
v 0.3 1.2 -0.1
v 0.4 1.2 -0.1
v -0.4 1.2 -0.2
v -0.3 1.2 -0.2
v 0.3 1.2 -0.2
v 0.4 1.2 -0.2
v -0.3 0.4 0.2
v -0.2 0.4 0.2
v -0.1 0.4 0.2
v 0 0.4 0.2
v 0.1 0.4 0.2
v 0.2 0.4 0.2
v 0.3 0.4 0.2
v -0.3 0.4 0.1
v -0.2 0.4 0.1
v -0.1 0.4 0.1
v 0 0.4 0.1
v 0.1 0.4 0.1
v 0.2 0.4 0.1
v 0.3 0.4 0.1
v -0.5 0.4 -2.98023e-08
v -0.4 0.4 -2.98023e-08
v -0.3 0.4 -2.98023e-08
v -0.2 0.4 -2.98023e-08
v 0.2 0.4 -2.98023e-08
v 0.3 0.4 -2.98023e-08
v 0.4 0.4 -2.98023e-08
v -0.5 0.4 -0.1
v -0.4 0.4 -0.1
v -0.3 0.4 -0.1
v -0.2 0.4 -0.1
v 0.2 0.4 -0.1
v 0.3 0.4 -0.1
v 0.4 0.4 -0.1
v -0.3 0.4 -0.2
v -0.2 0.4 -0.2
v -0.1 0.4 -0.2
v 0 0.4 -0.2
v 0.1 0.4 -0.2
v 0.2 0.4 -0.2
v 0.3 0.4 -0.2
v -0.3 0.4 -0.3
v -0.2 0.4 -0.3
v -0.1 0.4 -0.3
v 0 0.4 -0.3
v 0.1 0.4 -0.3
v 0.2 0.4 -0.3
v 0.3 0.4 -0.3
v 0.4 0.4 -0.3
v 0.5 0.4 -0.3
v 0.6 0.4 -0.3
v 0.3 0.4 -0.4
v 0.4 0.4 -0.4
v 0.5 0.4 -0.4
v 0.6 0.4 -0.4
v -0.4 0.5 -2.98023e-08
v -0.3 0.5 -2.98023e-08
v 0.4 0.5 -2.98023e-08
v 0.5 0.5 -2.98023e-08
v -0.4 0.5 -0.1
v -0.3 0.5 -0.1
v 0.4 0.5 -0.1
v 0.5 0.5 -0.1
v 0.6 0.5 -0.2
v 0.7 0.5 -0.2
v 0.2 0.5 -0.3
v 0.3 0.5 -0.3
v 0.4 0.5 -0.3
v 0.5 0.5 -0.3
v 0.6 0.5 -0.3
v 0.7 0.5 -0.3
v 0.2 0.5 -0.4
v 0.3 0.5 -0.4
v 0.4 0.5 -0.4
v 0.5 0.5 -0.4
v -0.8 0.6 -2.98023e-08
v -0.7 0.6 -2.98023e-08
v 0.3 0.6 -2.98023e-08
v 0.4 0.6 -2.98023e-08
v -0.8 0.6 -0.1
v -0.7 0.6 -0.1
v 0.3 0.6 -0.1
v 0.4 0.6 -0.1
v 0.7 0.6 -0.1
v 0.8 0.6 -0.1
v 0.7 0.6 -0.2
v 0.8 0.6 -0.2
v 0.1 0.6 -0.3
v 0.2 0.6 -0.3
v 0.3 0.6 -0.3
v 0.4 0.6 -0.3
v 0.1 0.6 -0.4
v 0.2 0.6 -0.4
v 0.3 0.6 -0.4
v 0.4 0.6 -0.4
v -0.2 0.7 0.2
v -0.1 0.7 0.2
v 0.1 0.7 0.2
v 0.2 0.7 0.2
v -0.2 0.7 0.1
v -0.1 0.7 0.1
v 0.1 0.7 0.1
v 0.2 0.7 0.1
v 0.6 0.7 -2.98023e-08
v 0.7 0.7 -2.98023e-08
v 0.6 0.7 -0.1
v 0.7 0.7 -0.1
v 0.4 0.7 -0.2
v 0.5 0.7 -0.2
v -0.1 0.7 -0.3
v 0.1 0.7 -0.3
v 0.2 0.7 -0.3
v 0.3 0.7 -0.3
v 0.4 0.7 -0.3
v 0.5 0.7 -0.3
v -0.1 0.7 -0.4
v 0.1 0.7 -0.4
v 0.2 0.7 -0.4
v 0.3 0.7 -0.4
v -0.4 0.9 0.1
v -0.3 0.9 0.1
v 0.3 0.9 0.1
v 0.4 0.9 0.1
v -0.4 0.9 -2.98023e-08
v -0.3 0.9 -2.98023e-08
v 0.3 0.9 -2.98023e-08
v 0.4 0.9 -2.98023e-08
v -0.4 0.9 -0.1
v -0.3 0.9 -0.1
v 0.3 0.9 -0.1
v 0.4 0.9 -0.1
v -0.4 0.9 -0.2
v -0.3 0.9 -0.2
v 0.3 0.9 -0.2
v 0.4 0.9 -0.2
v -0.7 1 -2.98023e-08
v -0.6 1 -2.98023e-08
v -0.4 1 -2.98023e-08
v -0.3 1 -2.98023e-08
v 0.3 1 -2.98023e-08
v 0.4 1 -2.98023e-08
v -0.7 1 -0.1
v -0.6 1 -0.1
v -0.4 1 -0.1
v -0.3 1 -0.1
v 0.3 1 -0.1
v 0.4 1 -0.1
v -0.4 1.1 0.1
v -0.3 1.1 0.1
v 0.3 1.1 0.1
v 0.4 1.1 0.1
v -1 1.1 -2.98023e-08
v -0.9 1.1 -2.98023e-08
v -0.8 1.1 -2.98023e-08
v -0.7 1.1 -2.98023e-08
v -0.6 1.1 -2.98023e-08
v -0.5 1.1 -2.98023e-08
v -0.4 1.1 -2.98023e-08
v -0.3 1.1 -2.98023e-08
v 0.3 1.1 -2.98023e-08
v 0.4 1.1 -2.98023e-08
v -1 1.1 -0.1
v -0.9 1.1 -0.1
v -0.8 1.1 -0.1
v -0.7 1.1 -0.1
v -0.6 1.1 -0.1
v -0.5 1.1 -0.1
v -0.4 1.1 -0.1
v -0.3 1.1 -0.1
v 0.3 1.1 -0.1
v 0.4 1.1 -0.1
v -0.4 1.1 -0.2
v -0.3 1.1 -0.2
v 0.3 1.1 -0.2
v 0.4 1.1 -0.2
v -0.2 1.1 -0.4
v 0.2 1.1 -0.4
v -0.2 1.1 -0.5
v 0.2 1.1 -0.5
v -0.3 1.2 0.3
v 0.3 1.2 0.3
v -0.4 1.2 0.2
v -0.3 1.2 0.2
v 0.3 1.2 0.2
v 0.4 1.2 0.2
v -0.4 1.2 0.1
v -0.3 1.2 0.1
v 0.3 1.2 0.1
v 0.4 1.2 0.1
v -0.9 1.2 -2.98023e-08
v -0.8 1.2 -2.98023e-08
v -0.9 1.2 -0.1
v -0.8 1.2 -0.1
v -0.4 1.2 -0.2
v -0.3 1.2 -0.2
v 0.3 1.2 -0.2
v 0.4 1.2 -0.2
v -0.4 1.2 -0.3
v -0.3 1.2 -0.3
v 0.3 1.2 -0.3
v 0.4 1.2 -0.3
v -0.3 1.2 -0.4
v 0.3 1.2 -0.4
v -0.3 1.3 0.2
v 0.3 1.3 0.2
v -0.4 1.3 0.1
v -0.3 1.3 0.1
v -0.2 1.3 0.1
v 0.2 1.3 0.1
v 0.3 1.3 0.1
v 0.4 1.3 0.1
v -0.8 1.3 -2.98023e-08
v -0.7 1.3 -2.98023e-08
v -0.8 1.3 -0.1
v -0.7 1.3 -0.1
v -0.4 1.3 -0.2
v -0.3 1.3 -0.2
v -0.2 1.3 -0.2
v 0.2 1.3 -0.2
v 0.3 1.3 -0.2
v 0.4 1.3 -0.2
v -0.3 1.3 -0.3
v 0.3 1.3 -0.3
v -0.2 1.4 0.1
v 0.2 1.4 0.1
v -0.2 1.4 -0.2
v 0.2 1.4 -0.2

# faces
f 3/2/1 2/2/1 1/2/1
f 4/2/1 2/2/1 3/2/1
f 5/3/1 4/3/1 3/3/1
f 6/3/1 4/3/1 5/3/1
f 7/13/1 6/13/1 5/13/1
f 8/13/1 6/13/1 7/13/1
f 9/2/1 8/2/1 7/2/1
f 10/2/1 8/2/1 9/2/1
f 13/2/1 12/2/1 11/2/1
f 14/2/1 12/2/1 13/2/1
f 17/2/1 16/2/1 15/2/1
f 18/2/1 16/2/1 17/2/1
f 21/3/1 20/3/1 19/3/1
f 22/3/1 20/3/1 21/3/1
f 25/2/1 24/2/1 23/2/1
f 26/2/1 24/2/1 25/2/1
f 29/4/1 28/4/1 27/4/1
f 30/4/1 28/4/1 29/4/1
f 33/4/1 32/4/1 31/4/1
f 34/4/1 32/4/1 33/4/1
f 37/5/1 36/5/1 35/5/1
f 38/5/1 36/5/1 37/5/1
f 42/11/1 40/11/1 39/11/1
f 43/11/1 40/11/1 42/11/1
f 44/11/1 40/11/1 43/11/1
f 45/11/1 40/11/1 44/11/1
f 47/11/1 42/11/1 41/11/1
f 48/11/1 44/11/1 43/11/1
f 49/11/1 44/11/1 48/11/1
f 50/11/1 46/11/1 45/11/1
f 51/11/1 47/11/1 41/11/1
f 51/11/1 48/11/1 47/11/1
f 52/11/1 48/11/1 51/11/1
f 53/11/1 50/11/1 49/11/1
f 54/11/1 46/11/1 50/11/1
f 54/11/1 50/11/1 53/11/1
f 55/11/1 51/11/1 41/11/1
f 56/11/1 51/11/1 55/11/1
f 57/11/1 53/11/1 52/11/1
f 58/11/1 53/11/1 57/11/1
f 59/11/1 46/11/1 54/11/1
f 60/11/1 46/11/1 59/11/1
f 61/11/1 58/11/1 57/11/1
f 61/11/1 59/11/1 58/11/1
f 61/11/1 57/11/1 56/11/1
f 62/11/1 59/11/1 61/11/1
f 69/12/1 64/12/1 63/12/1
f 70/8/1 65/8/1 64/8/1
f 70/12/1 64/12/1 69/12/1
f 71/12/1 66/12/1 65/12/1
f 71/8/1 65/8/1 70/8/1
f 72/8/1 67/8/1 66/8/1
f 72/12/1 66/12/1 71/12/1
f 73/12/1 68/12/1 67/12/1
f 73/8/1 67/8/1 72/8/1
f 74/12/1 68/12/1 73/12/1
f 78/2/1 76/2/1 75/2/1
f 78/5/1 77/5/1 76/5/1
f 79/5/1 77/5/1 78/5/1
f 82/2/1 78/2/1 75/2/1
f 83/12/1 79/12/1 78/12/1
f 83/2/1 78/2/1 82/2/1
f 84/2/1 80/2/1 79/2/1
f 84/12/1 79/12/1 83/12/1
f 85/2/1 80/2/1 84/2/1
f 87/2/1 83/2/1 82/2/1
f 87/2/1 86/2/1 85/2/1
f 87/2/1 85/2/1 84/2/1
f 87/2/1 84/2/1 83/2/1
f 87/2/1 82/2/1 81/2/1
f 88/2/1 86/2/1 87/2/1
f 89/2/1 86/2/1 88/2/1
f 90/2/1 87/2/1 81/2/1
f 91/2/1 87/2/1 90/2/1
f 94/11/1 89/11/1 88/11/1
f 95/11/1 89/11/1 94/11/1
f 99/10/1 92/10/1 91/10/1
f 100/10/1 92/10/1 99/10/1
f 101/11/1 94/11/1 93/11/1
f 102/11/1 94/11/1 101/11/1
f 104/14/1 101/14/1 100/14/1
f 105/14/1 101/14/1 104/14/1
f 107/11/1 98/11/1 97/11/1
f 108/11/1 98/11/1 107/11/1
f 109/14/1 104/14/1 103/14/1
f 110/14/1 104/14/1 109/14/1
f 111/11/1 106/11/1 105/11/1
f 112/11/1 106/11/1 111/11/1
f 113/11/1 96/11/1 95/11/1
f 114/11/1 96/11/1 113/11/1
f 115/11/1 109/11/1 108/11/1
f 116/11/1 109/11/1 115/11/1
f 117/11/1 113/11/1 112/11/1
f 118/11/1 113/11/1 117/11/1
f 121/1/1 120/1/1 119/1/1
f 122/1/1 120/1/1 121/1/1
f 123/5/1 122/5/1 121/5/1
f 124/5/1 122/5/1 123/5/1
f 129/8/1 126/8/1 125/8/1
f 130/12/1 127/12/1 126/12/1
f 130/8/1 126/8/1 129/8/1
f 131/8/1 128/8/1 127/8/1
f 131/12/1 127/12/1 130/12/1
f 134/8/1 128/8/1 131/8/1
f 135/8/1 128/8/1 134/8/1
f 137/2/1 133/2/1 132/2/1
f 138/2/1 133/2/1 137/2/1
f 139/2/1 136/2/1 135/2/1
f 140/2/1 136/2/1 139/2/1
f 142/2/1 141/2/1 140/2/1
f 143/2/1 141/2/1 142/2/1
f 145/11/1 143/11/1 142/11/1
f 145/11/1 144/11/1 143/11/1
f 146/11/1 144/11/1 145/11/1
f 147/11/1 144/11/1 146/11/1
f 148/11/1 144/11/1 147/11/1
f 151/11/1 150/11/1 149/11/1
f 152/11/1 150/11/1 151/11/1
f 155/2/1 154/2/1 153/2/1
f 156/2/1 154/2/1 155/2/1
f 159/2/1 158/2/1 157/2/1
f 160/2/1 158/2/1 159/2/1
f 163/1/1 162/1/1 161/1/1
f 164/1/1 162/1/1 163/1/1
f 165/5/1 164/5/1 163/5/1
f 166/5/1 164/5/1 165/5/1
f 172/8/1 168/8/1 167/8/1
f 173/2/1 169/2/1 168/2/1
f 173/8/1 168/8/1 172/8/1
f 174/2/1 169/2/1 173/2/1
f 175/2/1 171/2/1 170/2/1
f 176/2/1 171/2/1 175/2/1
f 179/2/1 178/2/1 177/2/1
f 180/2/1 178/2/1 179/2/1
f 182/11/1 180/11/1 179/11/1
f 182/11/1 181/11/1 180/11/1
f 183/11/1 181/11/1 182/11/1
f 186/2/1 185/2/1 184/2/1
f 187/2/1 185/2/1 186/2/1
f 192/2/1 189/2/1 188/2/1
f 193/2/1 189/2/1 192/2/1
f 194/2/1 191/2/1 190/2/1
f 195/2/1 194/2/1 190/2/1
f 196/2/1 194/2/1 195/2/1
f 197/11/1 196/11/1 195/11/1
f 198/11/1 196/11/1 197/11/1
f 201/2/1 200/2/1 199/2/1
f 202/2/1 200/2/1 201/2/1
f 207/5/1 204/5/1 203/5/1
f 208/5/1 204/5/1 207/5/1
f 209/2/1 206/2/1 205/2/1
f 210/2/1 206/2/1 209/2/1
f 215/5/1 212/5/1 211/5/1
f 216/5/1 212/5/1 215/5/1
f 217/2/1 214/2/1 213/2/1
f 218/2/1 214/2/1 217/2/1
f 221/2/1 220/2/1 219/2/1
f 222/2/1 220/2/1 221/2/1
f 225/2/1 224/2/1 223/2/1
f 226/2/1 224/2/1 225/2/1
f 229/2/1 228/2/1 227/2/1
f 230/2/1 228/2/1 229/2/1
f 233/2/1 232/2/1 231/2/1
f 234/2/1 232/2/1 233/2/1
f 237/2/1 236/2/1 235/2/1
f 238/2/1 236/2/1 237/2/1
f 239/2/2 240/2/2 241/2/2
f 241/2/2 240/2/2 242/2/2
f 243/2/2 244/2/2 245/2/2
f 245/2/2 244/2/2 246/2/2
f 247/3/2 248/3/2 249/3/2
f 249/3/2 248/3/2 250/3/2
f 251/13/2 252/13/2 253/13/2
f 253/13/2 252/13/2 254/13/2
f 255/13/2 256/13/2 257/13/2
f 257/13/2 256/13/2 258/13/2
f 259/2/2 260/2/2 261/2/2
f 261/2/2 260/2/2 262/2/2
f 263/4/2 264/4/2 265/4/2
f 265/4/2 264/4/2 266/4/2
f 267/4/2 268/4/2 269/4/2
f 269/4/2 268/4/2 270/4/2
f 269/13/2 270/13/2 271/13/2
f 271/13/2 270/13/2 272/13/2
f 271/4/2 272/4/2 273/4/2
f 273/4/2 272/4/2 274/4/2
f 275/5/2 276/5/2 277/5/2
f 277/5/2 276/5/2 278/5/2
f 279/5/2 280/5/2 281/5/2
f 281/5/2 280/5/2 282/5/2
f 283/2/2 284/2/2 285/2/2
f 283/2/2 285/2/2 286/2/2
f 283/2/2 286/2/2 287/2/2
f 287/2/2 286/2/2 288/2/2
f 289/1/2 290/1/2 291/1/2
f 291/1/2 290/1/2 292/1/2
f 291/5/2 292/5/2 293/5/2
f 293/5/2 292/5/2 294/5/2
f 295/2/2 296/2/2 297/2/2
f 297/2/2 296/2/2 298/2/2
f 299/2/2 300/2/2 301/2/2
f 301/2/2 300/2/2 302/2/2
f 301/11/2 302/11/2 304/11/2
f 302/11/2 303/11/2 304/11/2
f 304/11/2 303/11/2 305/11/2
f 306/2/2 307/2/2 308/2/2
f 308/2/2 307/2/2 309/2/2
f 310/2/2 311/2/2 312/2/2
f 312/2/2 311/2/2 313/2/2
f 314/1/2 315/1/2 316/1/2
f 316/1/2 315/1/2 317/1/2
f 316/5/2 317/5/2 318/5/2
f 318/5/2 317/5/2 319/5/2
f 320/12/2 321/12/2 324/12/2
f 321/8/2 322/8/2 325/8/2
f 324/12/2 321/12/2 325/12/2
f 322/12/2 323/12/2 326/12/2
f 325/8/2 322/8/2 326/8/2
f 326/12/2 323/12/2 327/12/2
f 325/8/2 326/8/2 332/8/2
f 326/8/2 327/8/2 332/8/2
f 327/8/2 328/8/2 332/8/2
f 332/8/2 328/8/2 333/8/2
f 328/2/2 329/2/2 334/2/2
f 333/8/2 328/8/2 334/8/2
f 334/2/2 329/2/2 335/2/2
f 330/2/2 331/2/2 336/2/2
f 336/2/2 331/2/2 337/2/2
f 338/2/2 339/2/2 340/2/2
f 340/2/2 339/2/2 341/2/2
f 340/11/2 341/11/2 343/11/2
f 341/11/2 342/11/2 343/11/2
f 343/11/2 342/11/2 344/11/2
f 344/11/2 342/11/2 345/11/2
f 345/11/2 342/11/2 346/11/2
f 347/11/2 348/11/2 349/11/2
f 349/11/2 348/11/2 350/11/2
f 351/8/2 352/8/2 357/8/2
f 352/12/2 353/12/2 358/12/2
f 357/8/2 352/8/2 358/8/2
f 358/12/2 353/12/2 359/12/2
f 354/12/2 355/12/2 360/12/2
f 355/8/2 356/8/2 361/8/2
f 360/12/2 355/12/2 361/12/2
f 361/8/2 356/8/2 362/8/2
f 362/2/2 363/2/2 366/2/2
f 366/2/2 363/2/2 367/2/2
f 364/2/2 365/2/2 368/2/2
f 364/2/2 368/2/2 373/2/2
f 368/12/2 369/12/2 374/12/2
f 373/2/2 368/2/2 374/2/2
f 370/2/2 371/2/2 375/2/2
f 374/12/2 369/12/2 375/12/2
f 369/2/2 370/2/2 375/2/2
f 375/2/2 371/2/2 376/2/2
f 376/2/2 371/2/2 377/2/2
f 377/2/2 371/2/2 378/2/2
f 373/2/2 374/2/2 379/2/2
f 372/2/2 373/2/2 379/2/2
f 374/2/2 375/2/2 379/2/2
f 379/2/2 375/2/2 380/2/2
f 376/2/2 377/2/2 381/2/2
f 381/2/2 377/2/2 382/2/2
f 372/2/2 379/2/2 383/2/2
f 383/2/2 379/2/2 384/2/2
f 381/11/2 382/11/2 387/11/2
f 387/11/2 382/11/2 388/11/2
f 384/11/2 385/11/2 392/11/2
f 392/11/2 385/11/2 393/11/2
f 386/11/2 387/11/2 394/11/2
f 394/11/2 387/11/2 395/11/2
f 393/11/2 394/11/2 397/11/2
f 397/11/2 394/11/2 398/11/2
f 390/11/2 391/11/2 400/11/2
f 400/11/2 391/11/2 401/11/2
f 396/11/2 397/11/2 402/11/2
f 402/11/2 397/11/2 403/11/2
f 398/11/2 399/11/2 404/11/2
f 404/11/2 399/11/2 405/11/2
f 388/11/2 389/11/2 406/11/2
f 406/11/2 389/11/2 407/11/2
f 401/11/2 402/11/2 408/11/2
f 408/11/2 402/11/2 409/11/2
f 405/11/2 406/11/2 410/11/2
f 410/11/2 406/11/2 411/11/2
f 412/5/2 413/5/2 416/5/2
f 416/5/2 413/5/2 417/5/2
f 414/2/2 415/2/2 418/2/2
f 418/2/2 415/2/2 419/2/2
f 420/5/2 421/5/2 424/5/2
f 424/5/2 421/5/2 425/5/2
f 422/2/2 423/2/2 426/2/2
f 426/2/2 423/2/2 427/2/2
f 428/2/2 429/2/2 431/2/2
f 431/2/2 429/2/2 432/2/2
f 430/11/2 431/11/2 434/11/2
f 431/11/2 432/11/2 434/11/2
f 434/11/2 432/11/2 435/11/2
f 435/11/2 432/11/2 436/11/2
f 436/11/2 432/11/2 437/11/2
f 433/11/2 434/11/2 439/11/2
f 435/11/2 436/11/2 440/11/2
f 440/11/2 436/11/2 441/11/2
f 437/11/2 438/11/2 442/11/2
f 433/11/2 439/11/2 443/11/2
f 439/11/2 440/11/2 443/11/2
f 443/11/2 440/11/2 444/11/2
f 441/11/2 442/11/2 445/11/2
f 442/11/2 438/11/2 446/11/2
f 445/11/2 442/11/2 446/11/2
f 433/11/2 443/11/2 447/11/2
f 447/11/2 443/11/2 448/11/2
f 444/11/2 445/11/2 449/11/2
f 449/11/2 445/11/2 450/11/2
f 446/11/2 438/11/2 451/11/2
f 451/11/2 438/11/2 452/11/2
f 449/11/2 450/11/2 453/11/2
f 450/11/2 451/11/2 453/11/2
f 448/11/2 449/11/2 453/11/2
f 453/11/2 451/11/2 454/11/2
f 455/5/2 456/5/2 459/5/2
f 459/5/2 456/5/2 460/5/2
f 457/2/2 458/2/2 461/2/2
f 461/2/2 458/2/2 462/2/2
f 463/2/2 464/2/2 465/2/2
f 465/2/2 464/2/2 466/2/2
f 467/2/2 468/2/2 469/2/2
f 469/2/2 468/2/2 470/2/2
f 471/2/2 472/2/2 473/2/2
f 473/2/2 472/2/2 474/2/2
f 475/2/2 476/2/2 477/2/2
f 477/2/2 476/2/2 478/2/2
f 479/2/2 480/2/2 481/2/2
f 481/2/2 480/2/2 482/2/2
f 485/11/3 484/11/3 483/11/3
f 486/11/3 484/11/3 485/11/3
f 492/11/3 488/11/3 487/11/3
f 493/11/3 488/11/3 492/11/3
f 494/11/3 488/11/3 493/11/3
f 496/12/3 490/12/3 489/12/3
f 497/12/3 490/12/3 496/12/3
f 499/2/3 492/2/3 491/2/3
f 499/2/3 493/2/3 492/2/3
f 500/2/3 493/2/3 499/2/3
f 501/8/3 497/8/3 496/8/3
f 502/8/3 497/8/3 501/8/3
f 503/2/3 499/2/3 498/2/3
f 504/2/3 499/2/3 503/2/3
f 507/12/3 502/12/3 501/12/3
f 508/12/3 502/12/3 507/12/3
f 509/2/3 506/2/3 505/2/3
f 510/2/3 506/2/3 509/2/3
f 511/8/3 508/8/3 507/8/3
f 512/8/3 508/8/3 511/8/3
f 515/12/3 512/12/3 511/12/3
f 516/12/3 512/12/3 515/12/3
f 517/2/3 514/2/3 513/2/3
f 518/2/3 514/2/3 517/2/3
f 521/8/3 516/8/3 515/8/3
f 522/8/3 516/8/3 521/8/3
f 523/2/3 519/2/3 518/2/3
f 524/11/3 520/11/3 519/11/3
f 524/2/3 519/2/3 523/2/3
f 525/11/3 520/11/3 524/11/3
f 526/11/3 495/11/3 494/11/3
f 527/11/3 495/11/3 526/11/3
f 528/11/3 525/11/3 524/11/3
f 528/11/3 526/11/3 525/11/3
f 529/11/3 526/11/3 528/11/3
f 536/11/3 531/11/3 530/11/3
f 537/11/3 531/11/3 536/11/3
f 538/11/3 533/11/3 532/11/3
f 539/11/3 533/11/3 538/11/3
f 541/2/3 535/2/3 534/2/3
f 542/2/3 535/2/3 541/2/3
f 543/2/3 535/2/3 542/2/3
f 549/8/3 541/8/3 540/8/3
f 549/8/3 542/8/3 541/8/3
f 550/8/3 542/8/3 549/8/3
f 551/9/3 544/9/3 543/9/3
f 552/15/3 545/15/3 544/15/3
f 552/9/3 544/9/3 551/9/3
f 553/2/3 546/2/3 545/2/3
f 553/15/3 545/15/3 552/15/3
f 554/2/3 546/2/3 553/2/3
f 555/12/3 550/12/3 549/12/3
f 556/8/3 551/8/3 550/8/3
f 556/12/3 550/12/3 555/12/3
f 557/9/3 552/9/3 551/9/3
f 557/8/3 551/8/3 556/8/3
f 558/5/3 553/5/3 552/5/3
f 558/9/3 552/9/3 557/9/3
f 559/5/3 553/5/3 558/5/3
f 561/8/3 556/8/3 555/8/3
f 561/8/3 557/8/3 556/8/3
f 562/8/3 557/8/3 561/8/3
f 563/8/3 557/8/3 562/8/3
f 564/5/3 559/5/3 558/5/3
f 564/8/3 557/8/3 563/8/3
f 564/5/3 558/5/3 557/5/3
f 565/5/3 559/5/3 564/5/3
f 566/2/3 560/2/3 559/2/3
f 566/5/3 559/5/3 565/5/3
f 567/12/3 562/12/3 561/12/3
f 568/8/3 563/8/3 562/8/3
f 568/12/3 562/12/3 567/12/3
f 569/8/3 563/8/3 568/8/3
f 570/5/3 565/5/3 564/5/3
f 571/15/3 566/15/3 565/15/3
f 571/5/3 565/5/3 570/5/3
f 572/2/3 560/2/3 566/2/3
f 572/15/3 566/15/3 571/15/3
f 573/2/3 560/2/3 572/2/3
f 574/11/3 548/11/3 547/11/3
f 575/11/3 548/11/3 574/11/3
f 576/2/3 569/2/3 568/2/3
f 576/2/3 570/2/3 569/2/3
f 577/2/3 570/2/3 576/2/3
f 582/11/3 579/11/3 578/11/3
f 583/11/3 579/11/3 582/11/3
f 584/11/3 581/11/3 580/11/3
f 585/11/3 581/11/3 584/11/3
f 592/2/3 587/2/3 586/2/3
f 593/3/3 588/3/3 587/3/3
f 593/2/3 587/2/3 592/2/3
f 594/13/3 589/13/3 588/13/3
f 594/3/3 588/3/3 593/3/3
f 595/2/3 590/2/3 589/2/3
f 595/13/3 589/13/3 594/13/3
f 596/2/3 590/2/3 595/2/3
f 599/2/3 592/2/3 591/2/3
f 600/13/3 594/13/3 593/13/3
f 600/13/3 593/13/3 592/13/3
f 600/2/3 592/2/3 599/2/3
f 600/13/3 595/13/3 594/13/3
f 600/13/3 596/13/3 595/13/3
f 601/2/3 597/2/3 596/2/3
f 601/13/3 596/13/3 600/13/3
f 602/2/3 597/2/3 601/2/3
f 604/3/3 599/3/3 598/3/3
f 605/3/3 599/3/3 604/3/3
f 606/13/3 601/13/3 600/13/3
f 607/13/3 601/13/3 606/13/3
f 608/13/3 601/13/3 607/13/3
f 609/13/3 601/13/3 608/13/3
f 610/2/3 603/2/3 602/2/3
f 611/2/3 603/2/3 610/2/3
f 613/13/3 608/13/3 607/13/3
f 614/13/3 608/13/3 613/13/3
f 615/13/3 608/13/3 614/13/3
f 617/4/3 613/4/3 612/4/3
f 617/4/3 614/4/3 613/4/3
f 618/4/3 614/4/3 617/4/3
f 619/4/3 614/4/3 618/4/3
f 620/13/3 615/13/3 614/13/3
f 620/4/3 614/4/3 619/4/3
f 621/4/3 616/4/3 615/4/3
f 621/13/3 615/13/3 620/13/3
f 622/4/3 616/4/3 621/4/3
f 623/5/3 619/5/3 618/5/3
f 624/5/3 619/5/3 623/5/3
f 630/5/3 625/5/3 624/5/3
f 631/5/3 625/5/3 630/5/3
f 632/11/3 627/11/3 626/11/3
f 633/11/3 627/11/3 632/11/3
f 634/11/3 629/11/3 628/11/3
f 635/11/3 629/11/3 634/11/3
f 639/1/3 637/1/3 636/1/3
f 640/5/3 638/5/3 637/5/3
f 640/1/3 637/1/3 639/1/3
f 641/5/3 638/5/3 640/5/3
f 645/1/3 643/1/3 642/1/3
f 646/5/3 644/5/3 643/5/3
f 646/1/3 643/1/3 645/1/3
f 647/5/3 644/5/3 646/5/3
f 656/5/3 649/5/3 648/5/3
f 657/5/3 649/5/3 656/5/3
f 658/5/3 651/5/3 650/5/3
f 659/5/3 651/5/3 658/5/3
f 660/11/3 653/11/3 652/11/3
f 661/11/3 653/11/3 660/11/3
f 662/11/3 655/11/3 654/11/3
f 663/11/3 655/11/3 662/11/3
f 664/5/3 658/5/3 657/5/3
f 665/5/3 658/5/3 664/5/3
f 668/2/3 667/2/3 666/2/3
f 669/2/3 667/2/3 668/2/3
f 672/11/3 671/11/3 670/11/3
f 673/11/3 671/11/3 672/11/3
f 678/2/3 675/2/3 674/2/3
f 679/2/3 675/2/3 678/2/3
f 680/11/3 677/11/3 676/11/3
f 681/11/3 677/11/3 680/11/3
f 684/2/3 683/2/3 682/2/3
f 685/2/3 683/2/3 684/2/3
f 690/11/3 687/11/3 686/11/3
f 691/11/3 687/11/3 690/11/3
f 692/11/3 689/11/3 688/11/3
f 693/11/3 689/11/3 692/11/3
f 700/11/3 695/11/3 694/11/3
f 701/11/3 695/11/3 700/11/3
f 702/11/3 697/11/3 696/11/3
f 703/11/3 697/11/3 702/11/3
f 704/2/3 699/2/3 698/2/3
f 705/2/3 699/2/3 704/2/3
f 708/2/3 707/2/3 706/2/3
f 709/2/3 707/2/3 708/2/3
f 713/2/3 711/2/3 710/2/3
f 714/2/3 711/2/3 713/2/3
f 716/2/3 713/2/3 712/2/3
f 717/2/3 713/2/3 716/2/3
f 718/2/3 715/2/3 714/2/3
f 719/2/3 715/2/3 718/2/3
f 721/2/3 718/2/3 717/2/3
f 722/2/3 718/2/3 721/2/3
f 723/2/3 721/2/3 720/2/3
f 724/2/3 721/2/3 723/2/3
f 725/11/4 726/11/4 729/11/4
f 729/11/4 726/11/4 730/11/4
f 727/11/4 728/11/4 731/11/4
f 731/11/4 728/11/4 732/11/4
f 733/11/4 734/11/4 737/11/4
f 737/11/4 734/11/4 738/11/4
f 735/11/4 736/11/4 739/11/4
f 739/11/4 736/11/4 740/11/4
f 741/11/4 742/11/4 743/11/4
f 743/11/4 742/11/4 744/11/4
f 745/2/4 746/2/4 747/2/4
f 747/2/4 746/2/4 748/2/4
f 749/11/4 750/11/4 751/11/4
f 751/11/4 750/11/4 752/11/4
f 753/2/4 754/2/4 759/2/4
f 754/3/4 755/3/4 760/3/4
f 759/2/4 754/2/4 760/2/4
f 755/13/4 756/13/4 761/13/4
f 760/3/4 755/3/4 761/3/4
f 756/2/4 757/2/4 762/2/4
f 761/13/4 756/13/4 762/13/4
f 762/2/4 757/2/4 763/2/4
f 758/2/4 759/2/4 766/2/4
f 760/13/4 761/13/4 767/13/4
f 759/13/4 760/13/4 767/13/4
f 766/2/4 759/2/4 767/2/4
f 761/13/4 762/13/4 767/13/4
f 762/13/4 763/13/4 767/13/4
f 763/2/4 764/2/4 768/2/4
f 767/13/4 763/13/4 768/13/4
f 768/2/4 764/2/4 769/2/4
f 765/3/4 766/3/4 771/3/4
f 771/3/4 766/3/4 772/3/4
f 767/13/4 768/13/4 773/13/4
f 773/13/4 768/13/4 774/13/4
f 774/13/4 768/13/4 775/13/4
f 775/13/4 768/13/4 776/13/4
f 769/2/4 770/2/4 777/2/4
f 777/2/4 770/2/4 778/2/4
f 774/13/4 775/13/4 780/13/4
f 780/13/4 775/13/4 781/13/4
f 781/13/4 775/13/4 782/13/4
f 779/4/4 780/4/4 784/4/4
f 780/4/4 781/4/4 784/4/4
f 784/4/4 781/4/4 785/4/4
f 785/4/4 781/4/4 786/4/4
f 781/13/4 782/13/4 787/13/4
f 786/4/4 781/4/4 787/4/4
f 782/4/4 783/4/4 788/4/4
f 787/13/4 782/13/4 788/13/4
f 788/4/4 783/4/4 789/4/4
f 785/5/4 786/5/4 790/5/4
f 790/5/4 786/5/4 791/5/4
f 791/5/4 792/5/4 797/5/4
f 797/5/4 792/5/4 798/5/4
f 793/11/4 794/11/4 800/11/4
f 800/11/4 794/11/4 801/11/4
f 795/11/4 796/11/4 802/11/4
f 802/11/4 796/11/4 803/11/4
f 798/5/4 799/5/4 807/5/4
f 807/5/4 799/5/4 808/5/4
f 804/1/4 805/1/4 809/1/4
f 805/5/4 806/5/4 810/5/4
f 809/1/4 805/1/4 810/1/4
f 810/5/4 806/5/4 811/5/4
f 812/1/4 813/1/4 815/1/4
f 813/5/4 814/5/4 816/5/4
f 815/1/4 813/1/4 816/1/4
f 816/5/4 814/5/4 817/5/4
f 818/5/4 819/5/4 826/5/4
f 826/5/4 819/5/4 827/5/4
f 820/5/4 821/5/4 828/5/4
f 828/5/4 821/5/4 829/5/4
f 822/11/4 823/11/4 830/11/4
f 830/11/4 823/11/4 831/11/4
f 824/11/4 825/11/4 832/11/4
f 832/11/4 825/11/4 833/11/4
f 827/5/4 828/5/4 834/5/4
f 834/5/4 828/5/4 835/5/4
f 836/2/4 837/2/4 838/2/4
f 838/2/4 837/2/4 839/2/4
f 840/11/4 841/11/4 846/11/4
f 846/11/4 841/11/4 847/11/4
f 842/11/4 843/11/4 848/11/4
f 848/11/4 843/11/4 849/11/4
f 844/2/4 845/2/4 851/2/4
f 851/2/4 845/2/4 852/2/4
f 850/8/4 851/8/4 855/8/4
f 855/8/4 851/8/4 856/8/4
f 855/12/4 856/12/4 857/12/4
f 857/12/4 856/12/4 858/12/4
f 857/8/4 858/8/4 859/8/4
f 859/8/4 858/8/4 860/8/4
f 860/8/4 858/8/4 861/8/4
f 859/12/4 860/12/4 862/12/4
f 862/12/4 860/12/4 863/12/4
f 853/11/4 854/11/4 864/11/4
f 864/11/4 854/11/4 865/11/4
f 866/2/4 867/2/4 871/2/4
f 867/11/4 868/11/4 872/11/4
f 871/2/4 867/2/4 872/2/4
f 872/11/4 868/11/4 873/11/4
f 869/11/4 870/11/4 874/11/4
f 874/11/4 870/11/4 875/11/4
f 876/2/4 877/2/4 878/2/4
f 878/2/4 877/2/4 879/2/4
f 880/11/4 881/11/4 886/11/4
f 886/11/4 881/11/4 887/11/4
f 882/12/4 883/12/4 889/12/4
f 889/12/4 883/12/4 890/12/4
f 884/2/4 885/2/4 892/2/4
f 885/11/4 886/11/4 893/11/4
f 892/2/4 885/2/4 893/2/4
f 893/11/4 886/11/4 894/11/4
f 889/8/4 890/8/4 895/8/4
f 895/8/4 890/8/4 896/8/4
f 891/2/4 892/2/4 897/2/4
f 897/2/4 892/2/4 898/2/4
f 895/12/4 896/12/4 901/12/4
f 901/12/4 896/12/4 902/12/4
f 901/8/4 902/8/4 903/8/4
f 903/8/4 902/8/4 904/8/4
f 898/2/4 899/2/4 906/2/4
f 899/11/4 900/11/4 907/11/4
f 906/2/4 899/2/4 907/2/4
f 907/11/4 900/11/4 908/11/4
f 903/12/4 904/12/4 909/12/4
f 909/12/4 904/12/4 910/12/4
f 905/2/4 906/2/4 911/2/4
f 911/2/4 906/2/4 912/2/4
f 909/8/4 910/8/4 915/8/4
f 915/8/4 910/8/4 916/8/4
f 912/2/4 913/2/4 917/2/4
f 913/11/4 914/11/4 918/11/4
f 917/2/4 913/2/4 918/2/4
f 918/11/4 914/11/4 919/11/4
f 887/11/4 888/11/4 920/11/4
f 920/11/4 888/11/4 921/11/4
f 919/11/4 920/11/4 924/11/4
f 924/11/4 920/11/4 925/11/4
f 922/2/4 923/2/4 926/2/4
f 926/2/4 923/2/4 927/2/4
f 928/2/4 929/2/4 930/2/4
f 930/2/4 929/2/4 931/2/4
f 932/11/4 933/11/4 936/11/4
f 936/11/4 933/11/4 937/11/4
f 934/2/4 935/2/4 939/2/4
f 939/2/4 935/2/4 940/2/4
f 938/2/4 939/2/4 942/2/4
f 942/2/4 939/2/4 943/2/4
f 941/2/4 942/2/4 946/2/4
f 946/2/4 942/2/4 947/2/4
f 943/2/4 944/2/4 948/2/4
f 948/2/4 944/2/4 949/2/4
f 937/11/4 933/11/4 951/11/4
f 945/2/4 946/2/4 953/2/4
f 953/2/4 946/2/4 954/2/4
f 947/2/4 948/2/4 955/2/4
f 955/2/4 948/2/4 956/2/4
f 950/11/4 951/11/4 957/11/4
f 951/11/4 933/11/4 958/11/4
f 957/11/4 951/11/4 958/11/4
f 952/2/4 953/2/4 959/2/4
f 959/2/4 953/2/4 960/2/4
f 954/2/4 955/2/4 961/2/4
f 961/2/4 955/2/4 962/2/4
f 960/2/4 961/2/4 964/2/4
f 964/2/4 961/2/4 965/2/4
f 963/2/4 964/2/4 966/2/4
f 966/2/4 964/2/4 967/2/4
f 968/11/4 969/11/4 970/11/4
f 970/11/4 969/11/4 971/11/4
f 971/11/4 969/11/4 973/11/4
f 972/11/4 973/11/4 974/11/4
f 973/11/4 969/11/4 975/11/4
f 974/11/4 973/11/4 975/11/4
f 982/4/5 977/4/5 976/4/5
f 983/4/5 977/4/5 982/4/5
f 984/1/5 979/1/5 978/1/5
f 985/1/5 979/1/5 984/1/5
f 986/1/5 981/1/5 980/1/5
f 987/1/5 981/1/5 986/1/5
f 995/12/5 989/12/5 988/12/5
f 996/8/5 990/8/5 989/8/5
f 996/12/5 989/12/5 995/12/5
f 997/8/5 994/8/5 993/8/5
f 997/12/5 993/12/5 992/12/5
f 998/8/5 994/8/5 997/8/5
f 1001/8/5 996/8/5 995/8/5
f 1002/8/5 990/8/5 996/8/5
f 1002/8/5 996/8/5 1001/8/5
f 1003/12/5 991/12/5 990/12/5
f 1003/8/5 990/8/5 1002/8/5
f 1004/8/5 992/8/5 991/8/5
f 1004/12/5 997/12/5 992/12/5
f 1004/12/5 998/12/5 997/12/5
f 1005/12/5 998/12/5 1004/12/5
f 1006/12/5 998/12/5 1005/12/5
f 1008/5/5 1000/5/5 999/5/5
f 1009/5/5 1000/5/5 1008/5/5
f 1010/12/5 1002/12/5 1001/12/5
f 1011/12/5 1002/12/5 1010/12/5
f 1012/12/5 991/12/5 1003/12/5
f 1013/8/5 1004/8/5 991/8/5
f 1014/8/5 1006/8/5 1005/8/5
f 1015/5/5 1007/5/5 1006/5/5
f 1015/8/5 1006/8/5 1014/8/5
f 1016/5/5 1007/5/5 1015/5/5
f 1017/8/5 1011/8/5 1010/8/5
f 1017/8/5 1012/8/5 1011/8/5
f 1018/8/5 1012/8/5 1017/8/5
f 1019/12/5 1015/12/5 1014/12/5
f 1019/12/5 1014/12/5 1013/12/5
f 1020/12/5 1015/12/5 1019/12/5
f 1021/12/5 1018/12/5 1017/12/5
f 1022/8/5 1012/8/5 1018/8/5
f 1022/12/5 1018/12/5 1021/12/5
f 1023/12/5 991/12/5 1012/12/5
f 1023/8/5 1012/8/5 1022/8/5
f 1024/8/5 1013/8/5 991/8/5
f 1024/12/5 991/12/5 1023/12/5
f 1025/12/5 1019/12/5 1013/12/5
f 1025/8/5 1013/8/5 1024/8/5
f 1026/8/5 1020/8/5 1019/8/5
f 1026/12/5 1019/12/5 1025/12/5
f 1027/8/5 1020/8/5 1026/8/5
f 1031/2/5 1028/2/5 1027/2/5
f 1032/2/5 1028/2/5 1031/2/5
f 1033/2/5 1030/2/5 1029/2/5
f 1034/2/5 1030/2/5 1033/2/5
f 1039/5/5 1036/5/5 1035/5/5
f 1040/5/5 1036/5/5 1039/5/5
f 1041/5/5 1038/5/5 1037/5/5
f 1042/5/5 1038/5/5 1041/5/5
f 1049/2/5 1044/2/5 1043/2/5
f 1050/2/5 1044/2/5 1049/2/5
f 1051/2/5 1046/2/5 1045/2/5
f 1052/2/5 1046/2/5 1051/2/5
f 1053/2/5 1048/2/5 1047/2/5
f 1054/2/5 1048/2/5 1053/2/5
f 1061/2/5 1056/2/5 1055/2/5
f 1062/2/5 1056/2/5 1061/2/5
f 1063/2/5 1058/2/5 1057/2/5
f 1064/2/5 1058/2/5 1063/2/5
f 1066/3/5 1060/3/5 1059/3/5
f 1067/3/5 1060/3/5 1066/3/5
f 1068/5/5 1062/5/5 1061/5/5
f 1069/5/5 1062/5/5 1068/5/5
f 1070/5/5 1065/5/5 1064/5/5
f 1071/5/5 1065/5/5 1070/5/5
f 1076/2/5 1073/2/5 1072/2/5
f 1077/2/5 1073/2/5 1076/2/5
f 1078/8/5 1075/8/5 1074/8/5
f 1079/8/5 1075/8/5 1078/8/5
f 1082/2/5 1079/2/5 1078/2/5
f 1083/2/5 1079/2/5 1082/2/5
f 1084/2/5 1081/2/5 1080/2/5
f 1085/2/5 1081/2/5 1084/2/5
f 1090/2/5 1087/2/5 1086/2/5
f 1091/2/5 1087/2/5 1090/2/5
f 1092/2/5 1089/2/5 1088/2/5
f 1093/2/5 1089/2/5 1092/2/5
f 1100/2/5 1095/2/5 1094/2/5
f 1101/2/5 1095/2/5 1100/2/5
f 1104/12/5 1097/12/5 1096/12/5
f 1105/12/5 1097/12/5 1104/12/5
f 1106/2/5 1099/2/5 1098/2/5
f 1107/2/5 1099/2/5 1106/2/5
f 1108/2/5 1103/2/5 1102/2/5
f 1109/2/5 1103/2/5 1108/2/5
f 1115/2/5 1110/2/5 1109/2/5
f 1115/2/5 1112/2/5 1111/2/5
f 1115/2/5 1111/2/5 1110/2/5
f 1116/2/5 1112/2/5 1115/2/5
f 1117/2/5 1112/2/5 1116/2/5
f 1118/2/5 1105/2/5 1104/2/5
f 1119/2/5 1105/2/5 1118/2/5
f 1120/2/5 1114/2/5 1113/2/5
f 1121/2/5 1114/2/5 1120/2/5
f 1122/2/5 1117/2/5 1116/2/5
f 1123/2/5 1117/2/5 1122/2/5
f 1124/2/5 1119/2/5 1118/2/5
f 1125/2/5 1119/2/5 1124/2/5
f 1130/2/5 1127/2/5 1126/2/5
f 1131/2/5 1127/2/5 1130/2/5
f 1132/2/5 1129/2/5 1128/2/5
f 1133/2/5 1129/2/5 1132/2/5
f 1138/2/5 1135/2/5 1134/2/5
f 1139/2/5 1135/2/5 1138/2/5
f 1140/13/5 1137/13/5 1136/13/5
f 1141/13/5 1137/13/5 1140/13/5
f 1146/2/5 1143/2/5 1142/2/5
f 1147/2/5 1143/2/5 1146/2/5
f 1148/2/5 1145/2/5 1144/2/5
f 1149/2/5 1145/2/5 1148/2/5
f 1153/2/5 1150/2/5 1149/2/5
f 1154/2/5 1150/2/5 1153/2/5
f 1155/2/5 1152/2/5 1151/2/5
f 1156/2/5 1152/2/5 1155/2/5
f 1163/13/5 1162/13/5 1161/13/5
f 1164/13/5 1162/13/5 1163/13/5
f 1165/11/5 1160/11/5 1159/11/5
f 1166/11/5 1160/11/5 1165/11/5
f 1167/11/5 1158/11/5 1157/11/5
f 1168/11/5 1158/11/5 1167/11/5
f 1173/11/5 1170/11/5 1169/11/5
f 1174/11/5 1170/11/5 1173/11/5
f 1175/11/5 1172/11/5 1171/11/5
f 1176/11/5 1172/11/5 1175/11/5
f 1183/11/5 1178/11/5 1177/11/5
f 1184/11/5 1178/11/5 1183/11/5
f 1185/2/5 1180/2/5 1179/2/5
f 1186/2/5 1180/2/5 1185/2/5
f 1187/11/5 1182/11/5 1181/11/5
f 1188/11/5 1182/11/5 1187/11/5
f 1193/11/5 1190/11/5 1189/11/5
f 1194/11/5 1190/11/5 1193/11/5
f 1199/11/5 1192/11/5 1191/11/5
f 1200/11/5 1192/11/5 1199/11/5
f 1201/11/5 1195/11/5 1194/11/5
f 1202/11/5 1195/11/5 1201/11/5
f 1203/11/5 1199/11/5 1198/11/5
f 1204/11/5 1199/11/5 1203/11/5
f 1205/11/5 1197/11/5 1196/11/5
f 1206/11/5 1197/11/5 1205/11/5
f 1209/11/5 1208/11/5 1207/11/5
f 1210/11/5 1208/11/5 1209/11/5
f 1211/11/5 1208/11/5 1210/11/5
f 1212/11/5 1208/11/5 1211/11/5
f 1213/11/5 1208/11/5 1212/11/5
f 1214/11/5 1208/11/5 1213/11/5
f 1217/14/5 1211/14/5 1210/14/5
f 1218/14/5 1211/14/5 1217/14/5
f 1219/14/5 1213/14/5 1212/14/5
f 1220/14/5 1213/14/5 1219/14/5
f 1223/11/5 1216/11/5 1215/11/5
f 1224/11/5 1216/11/5 1223/11/5
f 1225/11/5 1222/11/5 1221/11/5
f 1226/11/5 1222/11/5 1225/11/5
f 1231/11/5 1228/11/5 1227/11/5
f 1232/11/5 1228/11/5 1231/11/5
f 1233/11/5 1230/11/5 1229/11/5
f 1234/11/5 1230/11/5 1233/11/5
f 1239/11/5 1236/11/5 1235/11/5
f 1240/11/5 1236/11/5 1239/11/5
f 1241/11/5 1238/11/5 1237/11/5
f 1242/11/5 1238/11/5 1241/11/5
f 1249/11/5 1244/11/5 1243/11/5
f 1250/11/5 1244/11/5 1249/11/5
f 1251/11/5 1246/11/5 1245/11/5
f 1252/11/5 1246/11/5 1251/11/5
f 1253/2/5 1248/2/5 1247/2/5
f 1254/2/5 1248/2/5 1253/2/5
f 1259/11/5 1256/11/5 1255/11/5
f 1260/11/5 1256/11/5 1259/11/5
f 1261/11/5 1258/11/5 1257/11/5
f 1262/11/5 1258/11/5 1261/11/5
f 1263/12/6 1264/12/6 1270/12/6
f 1264/8/6 1265/8/6 1271/8/6
f 1270/12/6 1264/12/6 1271/12/6
f 1265/12/6 1266/12/6 1272/12/6
f 1271/8/6 1265/8/6 1272/8/6
f 1266/8/6 1267/8/6 1273/8/6
f 1272/12/6 1266/12/6 1273/12/6
f 1267/12/6 1268/12/6 1274/12/6
f 1273/8/6 1267/8/6 1274/8/6
f 1268/8/6 1269/8/6 1275/8/6
f 1274/12/6 1268/12/6 1275/12/6
f 1275/8/6 1269/8/6 1276/8/6
f 1270/8/6 1271/8/6 1279/8/6
f 1279/8/6 1271/8/6 1280/8/6
f 1275/12/6 1276/12/6 1281/12/6
f 1281/12/6 1276/12/6 1282/12/6
f 1277/5/6 1278/5/6 1284/5/6
f 1284/5/6 1278/5/6 1285/5/6
f 1279/12/6 1280/12/6 1286/12/6
f 1286/12/6 1280/12/6 1287/12/6
f 1281/8/6 1282/8/6 1288/8/6
f 1282/5/6 1283/5/6 1289/5/6
f 1288/8/6 1282/8/6 1289/8/6
f 1289/5/6 1283/5/6 1290/5/6
f 1286/8/6 1287/8/6 1291/8/6
f 1291/8/6 1287/8/6 1292/8/6
f 1288/12/6 1289/12/6 1296/12/6
f 1296/12/6 1289/12/6 1297/12/6
f 1291/12/6 1292/12/6 1298/12/6
f 1292/8/6 1293/8/6 1299/8/6
f 1298/12/6 1292/12/6 1299/12/6
f 1293/12/6 1294/12/6 1300/12/6
f 1299/8/6 1293/8/6 1300/8/6
f 1294/8/6 1295/8/6 1301/8/6
f 1300/12/6 1294/12/6 1301/12/6
f 1295/12/6 1296/12/6 1302/12/6
f 1301/8/6 1295/8/6 1302/8/6
f 1296/8/6 1297/8/6 1303/8/6
f 1302/12/6 1296/12/6 1303/12/6
f 1303/8/6 1297/8/6 1304/8/6
f 1304/2/6 1305/2/6 1308/2/6
f 1308/2/6 1305/2/6 1309/2/6
f 1306/2/6 1307/2/6 1310/2/6
f 1310/2/6 1307/2/6 1311/2/6
f 1312/5/6 1313/5/6 1316/5/6
f 1316/5/6 1313/5/6 1317/5/6
f 1314/5/6 1315/5/6 1318/5/6
f 1318/5/6 1315/5/6 1319/5/6
f 1320/2/6 1321/2/6 1326/2/6
f 1326/2/6 1321/2/6 1327/2/6
f 1322/2/6 1323/2/6 1328/2/6
f 1328/2/6 1323/2/6 1329/2/6
f 1324/2/6 1325/2/6 1330/2/6
f 1330/2/6 1325/2/6 1331/2/6
f 1332/3/6 1333/3/6 1336/3/6
f 1336/3/6 1333/3/6 1337/3/6
f 1334/5/6 1335/5/6 1338/5/6
f 1338/5/6 1335/5/6 1339/5/6
f 1340/2/6 1341/2/6 1342/2/6
f 1342/2/6 1341/2/6 1343/2/6
f 1344/2/6 1345/2/6 1348/2/6
f 1348/2/6 1345/2/6 1349/2/6
f 1346/2/6 1347/2/6 1350/2/6
f 1350/2/6 1347/2/6 1351/2/6
f 1352/2/6 1353/2/6 1356/2/6
f 1356/2/6 1353/2/6 1357/2/6
f 1354/2/6 1355/2/6 1358/2/6
f 1358/2/6 1355/2/6 1359/2/6
f 1360/2/6 1361/2/6 1362/2/6
f 1362/2/6 1361/2/6 1363/2/6
f 1364/2/6 1365/2/6 1370/2/6
f 1370/2/6 1365/2/6 1371/2/6
f 1366/2/6 1367/2/6 1372/2/6
f 1372/2/6 1367/2/6 1373/2/6
f 1368/2/6 1369/2/6 1374/2/6
f 1374/2/6 1369/2/6 1375/2/6
f 1376/11/6 1377/11/6 1380/11/6
f 1380/11/6 1377/11/6 1381/11/6
f 1378/11/6 1379/11/6 1382/11/6
f 1382/11/6 1379/11/6 1383/11/6
f 1384/11/6 1385/11/6 1388/11/6
f 1388/11/6 1385/11/6 1389/11/6
f 1386/11/6 1387/11/6 1390/11/6
f 1390/11/6 1387/11/6 1391/11/6
f 1392/13/6 1393/13/6 1398/13/6
f 1398/13/6 1393/13/6 1399/13/6
f 1394/11/6 1395/11/6 1400/11/6
f 1400/11/6 1395/11/6 1401/11/6
f 1396/11/6 1397/11/6 1402/11/6
f 1402/11/6 1397/11/6 1403/11/6
f 1404/11/6 1405/11/6 1414/11/6
f 1414/11/6 1405/11/6 1415/11/6
f 1406/11/6 1407/11/6 1416/11/6
f 1416/11/6 1407/11/6 1417/11/6
f 1408/2/6 1409/2/6 1418/2/6
f 1418/2/6 1409/2/6 1419/2/6
f 1410/13/6 1411/13/6 1420/13/6
f 1420/13/6 1411/13/6 1421/13/6
f 1412/4/6 1413/4/6 1422/4/6
f 1422/4/6 1413/4/6 1423/4/6
f 1424/11/6 1425/11/6 1428/11/6
f 1428/11/6 1425/11/6 1429/11/6
f 1426/11/6 1427/11/6 1430/11/6
f 1430/11/6 1427/11/6 1431/11/6
f 1432/11/6 1433/11/6 1434/11/6
f 1434/11/6 1433/11/6 1435/11/6
f 1436/11/6 1437/11/6 1439/11/6
f 1439/11/6 1437/11/6 1440/11/6
f 1438/11/6 1439/11/6 1442/11/6
f 1442/11/6 1439/11/6 1443/11/6
f 1440/11/6 1441/11/6 1444/11/6
f 1444/11/6 1441/11/6 1445/11/6
f 1446/2/6 1447/2/6 1448/2/6
f 1448/2/6 1447/2/6 1449/2/6
f 1450/11/6 1451/11/6 1454/11/6
f 1454/11/6 1451/11/6 1455/11/6
f 1452/11/6 1453/11/6 1456/11/6
f 1456/11/6 1453/11/6 1457/11/6
f 1455/11/6 1456/11/6 1458/11/6
f 1458/11/6 1456/11/6 1459/11/6
f 1460/11/6 1461/11/6 1463/11/6
f 1463/11/6 1461/11/6 1464/11/6
f 1464/11/6 1461/11/6 1465/11/6
f 1465/11/6 1461/11/6 1466/11/6
f 1468/2/6 1469/2/6 1470/2/6
f 1470/2/6 1469/2/6 1471/2/6
f 1462/11/6 1463/11/6 1472/11/6
f 1463/11/6 1464/11/6 1472/11/6
f 1472/11/6 1464/11/6 1473/11/6
f 1473/11/6 1464/11/6 1474/11/6
f 1465/11/6 1466/11/6 1475/11/6
f 1466/11/6 1467/11/6 1475/11/6
f 1475/11/6 1467/11/6 1476/11/6
f 1476/11/6 1467/11/6 1477/11/6
f 1473/11/6 1474/11/6 1478/11/6
f 1475/11/6 1476/11/6 1478/11/6
f 1474/11/6 1475/11/6 1478/11/6
f 1478/11/6 1476/11/6 1479/11/6
f 1480/11/6 1481/11/6 1482/11/6
f 1482/11/6 1481/11/6 1483/11/6
